<mxfile host="app.diagrams.net" modified="2021-07-28T07:00:10.927Z" agent="5.0 (Windows NT 10.0; Win64; x64) AppleWebKit/537.36 (KHTML, like Gecko) Chrome/92.0.4515.107 Safari/537.36" etag="idtv_bMw5_ppX17Y2vDP" version="14.9.2" type="github">
  <diagram id="X86fwXrp-qeoB6Ne8zq6" name="Page-1">
    <mxGraphModel dx="3555" dy="1905" grid="1" gridSize="10" guides="1" tooltips="1" connect="1" arrows="1" fold="1" page="1" pageScale="1" pageWidth="827" pageHeight="1169" math="0" shadow="0">
      <root>
        <mxCell id="0" />
        <mxCell id="1" parent="0" />
        <mxCell id="Ez9eSVSXWY47dWGgBNc--1" value="" style="shape=image;verticalLabelPosition=bottom;labelBackgroundColor=#ffffff;verticalAlign=top;aspect=fixed;imageAspect=0;image=data:image/png,iVBORw0KGgoAAAANSUhEUgAAA+gAAADcCAYAAADjoIvCAAAAAXNSR0IArs4c6QAAIABJREFUeF7snQeUFcXWhffkyAxhyEPOOUrOyQAYnjmn5/MZMCsqZsWMOf7PiBEVIwhIUBAEkZyRDEMewgyT479OYV9rerrv7ZuYy7h7LdeSudXV1V9Xddeuc+qcsJZde5WCBwmQAAmQAAmQAAmQAAmQAAmQAAmQQIUSCKNAr1D+vDgJkAAJkAAJkAAJkAAJkAAJkAAJKAIU6OwIJEACJEACJEACJEACJEACJEACJBACBCjQQ+AhsAkkQAIkQAIkQAIkQAIkQAIkQAIkQIHOPkACJEACJEACJEACJEACJEACJEACIUCAAj0EHgKbQAIkQAIkQAIkQAIkQAIkQAIkQAIU6OwDJEACJEACJEACJEACJEACJEACJBACBCjQQ+AhsAkkQAIkQAIkQAIkQAIkQAIkQAIkQIHOPkACJEACJEACJEACJEACJEACJEACIUCAAj0EHgKbQAIkQAIkQAIkQAIkQAIkQAIkQAIU6OwDJEACJEACJEACJEACJEACJEACJBACBCjQQ+AhsAkkQAIkQAIkQAIkQAIkQAIkQAIkQIHOPkACJEACJEACJEACJEACJEACJEACIUCAAj0EHgKbQAIkQAIkQAIkQAIkQAIkQAIkQAIU6OwDJEACJEACJEACJEACJEACJEACJBACBCjQQ+AhsAkkQAIkQAIkQAIkQAIkQAIkQAIkQIHOPkACJEACJEACJEACJEACJEACJEACIUCAAj0EHgKbQAIkQAIkQAIkQAIkQAIkQAIkQAIU6OwDJEACJEACJEACJEACJEACJEACJBACBCjQQ+AhsAkkQAIkQAIkQAIkQAIkQAIkQAIkQIHOPkACJEACJEACJEACJEACJEACJEACIUCAAj0EHgKbQAIkQAIkQAIkQAIkQAIkQAIkQAIU6OwDJEACJEACJEACJEACJEACJEACJBACBCjQQ+AhsAkkQAIkQAIkQAIkQAIkQAIkQAIkQIHOPkACJEACJEACJEACJEACJEACJEACIUCAAj0EHgKbQAIkQAIkQAIkQAIkQAIkQAIkQAIU6OwDJEACJEACJEACJEACJEACJEACJBACBCjQQ+AhsAkkQAIkQAIkQAIkQAIkQAIkQAIkQIHOPkACJEACJEACJEACJEACJEACJEACIUCAAj0EHgKbQAIkQAIkQAIkQAIkQAIkQAIkQAIU6OwDJEACJEACJEACJEACJEACJEACJBACBEJWoEcCaBcVjgbhQHJ4mEKVUVKKXSXA2sISFFUwvIhwoF29QjSoXoTk2FLVmsy8MOw6HIm1e6JQVFLBDQwHihsUoaRGCUrjjrcvLDcM4YfCEbErEqjo9lUwHl6eBEiABEiABEiABEiABEiABEKNQMgJ9E5R4bggLhLdIoGiiEjER0ciPlLkOpBTVIScgiJEFhdhaRHwRW4RVhaeWKXZMbUQ53fPRbeG+SgqjUBCbDjiY44/1px8IDuvBJFhxVi6MwZfLYnDyrSoE/rMixsVobBXIYqaFCCiJArhcREIi41QbSjNK0ZJbjGKwwsRuS0aUYuiELHjOFseJEACJEACJEACJEACJEACJEACFUsgZAR69fAw3JkYiY7REaiblIiEuFiEh4db0ikpKUF2bh72ZmZhVUExJmQV4XDJcStxsI7qCSW4fXgWOqUWom6NSCTGRyL8L8u++ZolJaXIyinCnkNFWJUWhRdnJuJwtvW9BKq9pYmlyB+Zh5JGxYhKiUdUQizCbNpXWlKKouw8FKTnIHxHBGKmxiIs67iXAg8SIAESIAESIAESIAESIAESIIGKIRASAl2s5o9WiUKdKgmolpToFYkjmVnYdywbDx8rDJo1Xazmj4zORN0aEaieHO1V+w5nFGDvoWI8+kNS0KzpxQ2LkHd+LqJS4hBTNcGr9uUfzUZhei5iv4qjNd0rcixMAiRAAiRAAiRAAiRAAiRAAoElUOECXcT5M1UiUbt6VcTHxfp0dzm5edh/+CjGHgu8y7uI86f/dRR1UmKQEOebO3h2bhH2pefj3q+rKot6IA8R57mXZCOuZjIiDV97Ly9QlJOP3IMZiPssgSLdS3YsTgIkQAIkQAIkQAIkQAIkQAKBIlChAl3c2t+rGo1G1ZN9FucGCBHpOw5n4JqjBQFzdxe39neuOILGdaN8FudG+0Skb99biH9PrBYwd3dxa8+5Pgux9ar4LM6N9olIz9tzDPFvJ9LdPVCji/WQAAmQAAmQAAmQAAmQAAmQgBcEKlSgj0+KwtBqVbx2a7e7P3F3n33kGMZlFnqBwL7o42dnYlj7Eq/d2u1qFHf3WWvC8eC3SQFpX96FuQjvHOW1W7vdxcXdvWRFIWInxQWkfayEBEiABEiABEiABEiABEiABEjAOYEKE+ji2v5EcjRa1q3lvLUOSv659wAeyCjwez+6uLY/cXYmWjUKrFjduCMXD3yb5Leru0Rrz78wDwlNajig4rxI9rZDiJkUS1d358hYkgRIgARIgARIgARIgARIgAQCQqDCBPr4pGicmpKEKgnxAbkRo5Jj2TmYkZ6JcZkFftUr1vPTOpUiKTGwe8YzswoxfWWY31Z0sZ5HdItBdJXALiAUHMtF8dJ8WtH96j08mQRIgARIgARIgARIgARIgAS8J1AhAl1CrU2pHo1GdWvZplLz/laOnyEp2HbsPYBRhwtQ5GMlEeHADzcfRJP68bap1HysGpKCbdvuHIx+rSaKfU3hHg5k3ZOBxAY1bVOp+do+ScGWtesgEp9NBnxtn68X53kkQAIkQAIkQAIkQAIkQAIk8A8mUCECXdzbx1eNRYs6KUFBv2lfOsYdzfPZzV25t59zDK0a+hZV3tNNbdyZhwe+qeKzm7u4txdcWID4JtU8Xcqn33O2HUH0pGi6uftEjyeRAAmQAAmQAAmQAAmQAAmQgG8EKkSgj4oJxx0piahfvapvrfZw1u7DR/FCeham5PtmAh7ZMRd3nJqP1Fre5Tx3ejNpBwrwwowYTF3lm3t6YdcClIwuRWydwASbM7c7b18mwn8IQ9Sy4Ny/U04sRwIkQAIkQAIkQAIkQAIkQAL/JAIVItAvjYvAmFrJAYvebn5gEs391QMZ+CS32KdneUmPHIwZURCw6O3mRkg091d/isani33bf1/QNx8YFRGw6O3m9kk0d0wpRvSCGJ/48SQSIAESIAESIAESIAESIAESIAHvCVCgWzCjQKdA934o8QwSIAESIAESIAESIAESIAES8I9AhQj0UHdxH9UxF7cH2cX9xRkxmEIXd/96L88mARIgARIgARIgARIgARIggUpEoEIEeqgHieuUWojHgxwk7sFvqmBlmm8p3BgkrhKNQN4KCZAACZAACZAACZAACZAACfxFoEIEeqinWYsMB74Pcpq1M1+riSLfYtgBTLPGAUwCJEACJEACJEACJEACJEAClY5AhQh0oTg+KRqnpiShSoJvgdLsnsSx7BzMSM/EuMwCvx7W42dn4rROpUhK9M3KbXfxzKxCTF8Zhge/9S8Ce96FuYjsFoOoKr5FgrdrX+GxXBQtzUfspMDW69fD4MkkQAIkQAIkQAIkQAIkQAIk8A8gUGECXdzcn0iORsu6tQKK+c+9B/BARoHPOdCNxig397Mz0apRYIXqhh25eOjbJJ/d2432iZt7/oV5SGhSI6D8srcdQsykWOZADyhVVkYCJEACJEACJEACJEACJEACnglUmECXpo1PisLQalUClm5N0qvNPnIM4zILPd+5gxIi0Ie1LwlYujVJrzZrTbjf1nOj6WJFD+8cFbB0a5JerWRFIa3nDvoGi5AACZAACZAACZAACZAACZBAoAlUqECvHh6G96pGo1H1ZMTHxfp1bzm5edhxOAPXHC3A4ZJSv+oyTq6eUIJ3rjiCxnWjkBAnO+d9P7Jzi7B9byH+PbEaDmeH+16RdmZpYilyrs9CbL0qiIz3L2d5UU4+8vYcQ/zbiQjLCgtI+1gJCZAACZAACZAACZAACZAACZCAcwIVKtClmeLq/kyVSNSuXtVnkS7ifP/hoxh7rMhv13Yzuo6phXj6X0dRJyXGZ5Eu4nxfej7u+7qq367t5vaJq3vuxdmIq5nss0gXcZ57MANxnyXQtd352GFJEiABEiABEiABEiABEiABEggogQoX6IZIf7RKFOpUSfDa3V3c2vcdy8bDxwoDLs4N0iLSHxmdibo1Irx2dxe39r2HivHoD/7vO7d78iLS887LRVRKnNfu7uLWXpiei9iv4ijOAzq0WBkJkAAJkAAJkAAJkAAJkAAJeEcgJAS6NFnc3e9MjETH6AjUTUpEQlwswsOtXcFLSkqQnZuHvZlZWFVQjAlZRQFza7fDJ+7utw/PggSPq1sjEonxkQgPt3YFLykpRVZOEfYcKsKqtCi8ODMxYG7tdu0Td/f8kXkoaVSMqJR4RCXEIsymfaUlpSjKzkNBeg7Cd0QgZmos3dq9GzcsTQIkQAIkQAIkQAIkQAIkQAIBJxAyAt24M3F5vyAuEt0igaKISMRHRyI+8vj+75yiIuQUFCGyuAhLi4AvcgPv0u6JsFjTz++ei24N81FUGoGE2HAY279z8oHsvBJEhhVj6c4YfLUkLuAu7Z7aJ9b0wl6FKGpSgIiSKITHRSAsNkKdVppXjJLcYhSHFyJyWzSiFkXRau4JKH8nARIgARIgARIgARIgARIggRNEIOQEunHfIsnbRYWjQTiQ/JclOKOkFLtKgLWFJSg6QYDsLhMRDrSrV4gG1YuQHHs8KF1mXhh2HY7E2j1RKCqp4AaGA8UNilBSowSlccfbF5YbhvBD4YjYFQlUdPsqGA8vTwIkQAIkQAIkQAIkQAIkQAKhRiBkBXqogWJ7SIAESIAESIAESIAESIAESIAESCCYBCjQg0mXdZMACZAACZAACZAACZAACZAACZCAQwIU6A5BsRgJkAAJkAAJkAAJkAAJkAAJkAAJBJMABXow6bJuEiABEiABEiABEiABEiABEiABEnBIgALdISgWIwESIAESIAESIAESIAESIAESIIFgEqBADyZd1k0CJEACJEACJEACJEACJEACJEACDglQoDsExWIkQAIkQAIkQAIkQAIkQAIkQAIkEEwCFOjBpMu6SYAESIAESIAESIAESIAESIAESMAhAQp0h6BYjARIgARIgARIgARIgARIgARIgASCSYACPZh0WTcJkAAJkAAJkAAJkAAJkAAJkAAJOCRAge4QFIuRAAmQAAmQAAmQAAmQAAmQAAmQQDAJUKAHky7rJgESIAESIAESIAESIAESIAESIAGHBCjQHYJiMRIgARIgARIgARIgARIgARIgARIIJgEK9GDSZd0kQAIkQAIkQAIkQAIkQAIkQAIk4JAABbpDUCxGAiRAAiRAAiRAAiRAAiRAAiRAAsEkQIEeTLqsmwRIgARIgARIgARIgARIgARIgAQcEqBAdwiKxUiABEiABEiABEiABEiABEiABEggmAQo0INJl3WTAAmQAAmQAAmQAAmQAAmQAAmQgEMCFOgOQbEYCZAACZAACZAACZAACZAACZAACQSTAAV6MOmybhIgARIgARIgARIgARIgARIgARJwSIAC3SEoFiMBEiABEiABEiABEiABEiABEiCBYBKgQA8mXdZNAiRAAiRAAiRAAiRAAiRAAiRAAg4JUKA7BMViJEACJEACJEACJEACJEACJEACJBBMAhTowaTLukmABEiABEiABEiABEiABEiABEjAIQEKdIegWIwESIAESIAESIAESIAESIAESIAEgkmAAj2YdFk3CZAACZAACZAACZAACZAACZAACTgkQIHuEBSLkQAJkAAJkAAJkAAJkAAJkAAJkEAwCVCgB5Mu6yYBEiABEiABEiABEiABEiABEiABhwQo0B2CYjESIAESIAESIAESIAESIAESIAESCCYBCvRg0mXdJEACJEACJEACJEACJEACJEACJOCQAAW6Q1AsRgIkQAIkQAIkQAIkQAIkQAIkQALBJECBHky6rJsESIAESIAESIAESIAESIAESIAEHBKgQHcIisVIgARIgARIgARIgARIgARIgARIIJgEKNCDSZd1kwAJkAAJkAAJkAAJkAAJkAAJkIBDAhToDkGxGAmQAAmQAAmQAAmQAAmQAAmQAAkEkwAFejDpsm4SIAESIAESIAESIAESIAESIAEScEiAAt0hKBYjARIgARIgARIgARIgARIgARIggWASoEAPJl3WTQIkQAIkQAIkQAIkQAIkQAIkQAIOCVCgOwTFYiRAAiRAAiRAAiRAAiRAAiRAAiQQTAIU6MGky7pJgARIgARIgARIgARIgARIgARIwCEBCnSHoFiMBEiABEiABEiABEiABEiABEiABIJJgAI9mHRZNwmQAAmQAAmQAAmQAAmQAAmQAAk4JECB7hAUi5EACZAACZAACZAACZAACZAACZBAMAlQoAeTLusmARIgARIgARIgARIgARIgARIgAYcEKNAdgmIxEiABEiABEiABEiABEiABEiABEggmAQr0YNJl3SRAAiRAAiRAAiRAAiRAAiRAAiTgkAAFukNQLEYCJEACJEACJEACJEACJEACJEACwSRAgR5MuqybBEiABEiABEiABEiABEiABEiABBwSoEB3CIrFSIAESIAESIAESIAESIAESIAESCCYBCjQg0mXdZMACZAACZAACZAACZAACZAACZCAQwIU6A5BsRgJkAAJkAAJkAAJkAAJkAAJkAAJBJMABXow6bJuEiABEiABEiABEiCBCiPQpVMHjDr9VGzfsQsffTapwtrBC5MACfhHoHfPU3DuWaPxx7Ll+OHH6cjJyfWvwhA+mwI9hB8Om0YCJEACJEACJEACJOA9gXZtWuPfV10OEegRERGYMu0nPPPCy95XxDNIgARCgsCpw4bgjjE3Ii4uFkeOHMUXX3+LTyZ9FRJtC3QjKNADTZT1kQAJ/GMJREbFoueosWjcfjjCwsKRvmcd5k66F7nH0v+RTFp0Oxtdht2I6NgqyMs5it9/eAq7Nsz7R7LgTZNAsAjExCVjwIVPoVbDTuoSaRvnY8HXD6OoMC9Ylwz5es8750xcffklSKpSRbW1pKQE302ZhhdefSPk2240kO/Pk+ZRsaEniMDQwQNw+003IDk5yTWuFy9ZhmdfehUHD1aueRYF+l+dalSH83B+tyssu9i+zN14avo4HM05fIK6IC9jEBh7x60YdfoI9c+CggJ88PFn+OizL8oB+uidN9G4UUMcTD+EJ56ZgGUrVlYqiDoHb26ssvLwhoE3ZWWi23nof9Go3VAlKs3H8tlvYu38ibZVVq/TEkOveAVSjxzFRflY+N14bF8z05tmBKVsu35XoMvQG8q1SRYTep81DhGRMUo8z5001vb6suhw6jVvIyW1PXKz0jHrwzHISN9uW17K1mzQ0fX71lXT8Ns3jwXl/gJZqbndet0lxYXIPLwL21ZOw/pFkyD/DsZh7kueruErW/35e+rfntpg/j2uSgqGX/k6kmo09PZUBLotXjfAwwn6vR3ctQoz3rve7Rl6+eyMfZj14c04dmS37TkdBl6DToOuQ2lpCZbOeBkbfi//3TNO1p+h/C0/NwOzJ96Cw/v+DPRtnxT1XXLhebji4guQkJCA4uJiLF+5Gu988BHWrt9Qrv2expkx3jf+/iU2L/tePY8TdQTj/RnM8X6iuPA6/2wC8fFxOP+cs3Du2aNRrWpVlJaWYunylRj36BOVyuWdAv2vfk6BHpoD3ixMV65ei5vvuKdcYynQrZ8fBbrzfh0ZHYfBFz+P2o272p7kSTSEsgXdTqBXqVYfw658DQnJdXD0wBb89MGNKMjNtGSQnNIYw658FXGJKTiwcyVmfnCj2wnryWoBcifQdTCH9qzHr1+OQ9bRvc47msOSnoSDuRoKdIdgA1TMW4Eulx144TNo0HoACgtyMP+rh7B70wLb1gy97CXUbdZTie05H98O6Wt2By3of5MZ0Lc37rrtZjVxl/2pn3/1Nd7/6FNbdo7HWWkp9m1fil8+vwdFBSdm32sw3p8U6AF6AbCaCicgW1juuX0MmjZprDxkfpr9M8Y/+0KFtytQDaBA/4tkQkwVpCTUdHGVf1/T5ybUrFIHtKAHqrt5X49ZoB8+chRPPf8iFi1eUqayyi7Q27RqiYYNUssBPGvU6ejQri1yc3Px6ReTsXff/jJl8vLz8cfSZZVqVdH7XuTsjGadR6LHqLGIiIhSQnXV3PeQdTitzMlZGftsxauzq1RcKTuBLi1yKgb0yd3aBR9h+ayTx13UG/KGQM86shuLfnja9cxj4quiQZuBysPC8JLYs3kRfv70zoBb1sIjopTlOTw8wtX09gOuRsM2g1CQd0y1S++fudmHfdpKEcwJu3hcVKnRAJGRMWXwJ1ZPRa/R9yovlZ3rf8Gaee+XezyhPtZ8Eeite16AbqfeijCEYcXPb2PNrx9adku97sN7N+Cn92/4R7urOx27Yll7/snH1DexqKgIk7/9Aa+9/Y7b03WBbu6LEVGxaNhmIJp0OgOx8VWB0lJsXTUdC797IuDj3ek9+lsumOPd37bxfBLwlkDXzp0w7p7bUatmTWRlZeON/72ngsdVhoMC3eYpVo2vjvtOG486SfUp0CuwpxsCPS8vD7l5eUhOTsb3U6dhwsuv/6MEut0jeOnZ8ejWpbMS4LK3bsasORX4tE7uS/c+cxyadRnlyLp1Mt6pO4Eu+8Tb9b1cuWsv/nECNi/7zvIWjXKh5LofjGdhCPTMQzsx88ObygnfqjWbYvClE5TXgYhlsaod2LEiGE0pU2efcx5C046nB9SFuSIm7Loo8tXyH3TYHi7gi0AX75xBFz2DqJhEt9tJ9HInK5+KeD7nnDkSN/z7asTFxWHT5i24+c6xHhennfTFxKp1MfTyV1CleuoJHe/BYFgR4z0Y98E6ScAgcO2Vl+HSi85HVGQk7LxsT0ZaFOgU6CHdbw2BLgJ0x65dEEvyzl1puPehx7Ar7e/9e5Xdgk6BHvxuGgzxE/xWO7+CO4Fev0Vf9DvvMURFx2PL8ilY+P14y4pHXPUmajXqDCd7aJ23LPRKehLo0uJTTr8TrXqcp6xqy2a9jnW/fRL0GwlGHw3khP2i8/6F6tWqKiuGu8OJKAo6TD8v4ItAj45Lwoir3kDVWs2Qmb5DbSfJyy4f26Ztn0vRddhNKCkpcrtg5uctVPjpd982BqvWrA3YwvIj48Zi6KAByno+afK3eOud8p4Z5pt22hfb978SnQdfD4SFYeUv/8Pque77eIXDtWlAIMd7qN4j2/XPItAgtT6efuwh5WVq52V7MhKpcIEeFhaGu4Y/ivb1OiO3IAcvzRmPDftWW7KUsvef9hRa1m5rWzYyPBIj2p6Jfs2HoHZSPci/S1GKnIJsbD6wAZOXfYwdh7d6fFYVaUF3YhXVV4zsUoeIu9eN112Lfn16ompyskozYhzi+rxl6za8N/ETSAREd4dMus44dRhS69dDVFSUCsggFu3tO3cpFzJ3VlvjXoy90PXq1lbBHRo1bKDaIwFcRHB/N3Waqst8GAK9sKgIi5csRY/u3VBSXIL3PvoEn2qpFZwIdEnPcPaoM9CkSSPEx8VB+pNc/2hGBhb+/gfe++hTyyiQxj1s37ET02bOxiUXnIekKonYf+AAXn7j/5C2ew/uvfNWtG3dCkXFxViydDmee/k124iS/vA083HSV4xzLr/4Alx12cWIjo7GmrXrccNtd9k+dr1/eSrrcTCdJAV8FT/u9ivbWWB1JMZ1jbLVajVD1xFjIPu9w8IjUJifhf3bl+OPaROQnVF2C4MZbf2WfVUgOP3cfduXYfGU59C08xmWQeKkDn0fup1LrV5m75bfMfvj28o9WWMRwOqRe2N1F/fxdv0uR5MOpyI2sbqKiC/Wfbl/se5bBWczFhnCwyOx6PsnsW31DNUMvd3mYF5Ge48dTlOW8pzMA+ocJwJdv1c9NkG12s0x5LKXEJdYA0cPbsXM929UFm+ro8z+fw9l5Xxf+2hK/XboMvwm1ExtD3Gdl2eRvnsdlkx/UfUVI0igpxgLdkNZ3mlivaxbp7YK0HnbPePcjnqnosiqknrNe6F9/6tQo15rFdhQFkgK8rNwcNdqrJzztmVgNBHTso1DhHFxcSGWTHsBm5Z+W656iUMx5NIXVTT00pJiLJv1BtYvPL5/2V3ftrtZq+Bxrn3o+Vn45fOx2L+9/PfXKGMXiNFT8D0nQeuMNnvLU19k2L76J8z/+mHX7RvtNgepM553ZFRcmbEp322ZVMtcRAS1Px5gMt/5v9deQqMGqThy9CiemfAKFiz63ePXx2lf1Bcxg+XVEKj3Z7DHuzuoTnk6ecfKu0m+hTUbdEB0TKJaHJFDxqZsgVm34GOPgfvk29Gk46lo0/sSJKc0Uu8/CfSXn5uJPZsWYuXPb9t+V/VxJs984bdPoHnXM9Gu72VIqFpXfZfEgypt469YPutNFTg10IfOU97PGxd/iW4jbnEFsvWGhXxX2/a5BI3aD0dCUi01v3DC4u/xG4vFU59TsTEatR2CkpJiyFY3WaySrVenjLwbsXHJKvilBMc9sNPaq8yX77snrsbiXGFhISZ+OkkFlD7ZjwoX6AJwUMtTcXmv65WYnrp6Mr5Yar0vq0G1xrh7xKNIjquG7Yc2Y/y0+1BQlO96Bg2rN8WNA+9C3eTye3WNQgXFBfhm+af4cc3Xbp/dyS7Q5WM1/uEH0K1LJyVE7Q7Zs/H2ux/g2yk/lisidTz+0P04pWsX2zry8wswZdoMvPT6W5aX0AX6nF/m4ezRIxETE12urERonzT5G/zfe2UjZOsCXVzbBw/oryw0IqjveeARVz3uBLrcx7133gYJHqMvUpgbIUL75TfeLre/3bgHWUiQQ98LvuHPTdi9ey+GDOrvYlRSWooZM+fgyefKBqsIBE9zm70R6LLK+OwTn+5TAAAgAElEQVT4R5Bar57HCcyzTzyC3j1PUQsYX37zHV5/+92T/V3nsf2+ip9ACvSNi79Cl2E3QCay5kOs1vO+HIdDu9dZ3kvHgdeiw4Cr1UfXfIi1Lu3P+RDLnJ1QNvah24kCfYJqt/88EBNMifo+4PzxkMmR5VFaigO7VuHXLx8oMyESYTz0ilfVXlFdaNao3xaDL5mg9nLnZR0uY7U0rODmRQknk0fD3d8qyrbBUsTg4inPYMuKqZa34tqTHBYOefayCOPu8KWPNul4GnqOuseyT4n19s8l36gJp4hdbwW6LsyN78zipctw570Pur0Pp5N4vRKZDPc68z407XSGmhhbHRJ8bcWsN7Dxj8nlfk5t2Q99z31UeYnIgszsj24pF9xPrKQSOV3GkOxHlgCARtTuQAl045lLA62is+sC2G6xLBAC3R+ehieNvhBgZHhISmmk+MkEfee641uujHcHSkvKLEp8+H+vqwBPckiQJ3+EuuxFfWDsnaiZUgOymH75v2/w+M6XAk774onYdhCI92cwx7sToE55enrHyndg4IVPITahuv1lPcQEkAW3QRc9izqNu7nEvbmy3KxDWPT9U5YBG80CvaS4CBKrxur9I9/YOZ/cHvCAoTrPVb+8o4LYWgWyFaG+efkPSkBbZRqQMSjvT1k4tjskOOzvU57Bjr/GrVFOF+jbVs1Ak06nq1g9csg7VxZ6Ze6RWLWeq2o744Sv33dPfe+6q6/AxRecq9zc7YyWnuoItd9DQqCnJNbCvaeNR83E2pbC24A2vM1oXNLjWiWEpqz6Cl8t+8jFMzGmCsae+gQaVm+iLLybD27E0p0LsXHfWjROaYZWtdujS4NTEBMZi7zCXLw1bwKW71ps+zxOdoH+339fjQvPPRuRkZHIzs7GH0uXqzQEso+7Vs0UDOrfD82bNUF4eLiyAN/38OPqo6YfYhU+fcQwVUYE9LoNG5W1PS4uFj27d0ezpo2V4BWR/sHHn+Ljz78sx9MQkIcPH0FBYQHiYuOwdMVK5dbWvGlT9OjeBTVTUtQzzTx2TO2jnv3z33mSdYH+yedfokO7NmrPtdmNxZ1Av33MDcpyLvchrvJybfkvv6AArVu2QKcO7VxtEMF96933ldm3pi8ypKcfwq+/LUS/Pr2Uu31OTg72Hzio7ik5KQmD+vdVFuq0PXtwz7hHyrjhB4KnGbA3Al3Offj+e5QLoEyG7IS33NdjD96LOrVrB8VdSDwZ7hhzI2TBwukR6Beu48i9pgZaCRj5KEXHJpYp2XP0vahRrw28saBLQLKiwnzIpEKse+lpayHWraYdT3OJVbuAZLr4kI+zRFjfsWaWEiIyoUht3R+H9mxQFlT53Sr129/7ywvKWLmMGzPSPrmLQC3iIjG5ThkWjTuMcLswoBeWCdGwK15VVl2xjGYc2oGtK6e5WDTpMBzxSbXVKWYW5smUkc5NrPCnnHEnso/uQ1xSTcyeOAZH9m9WdRgWP9k//tMHf0/oPU0e5RlJ+jB5xjLBm/Pxba46pV494KCIFFlYMR8yyRty2Yuo27SH8pKws6bq53kr0MViLIsFarGjtBRHDmyGTLCkL4jFo3GH4cg6vBtJKQ3VvminAt1KmGdkZGLWz3PxyRdfecxH63QSr9+7Lp6LCnNVru/ta2YhKiZejRGZtIp1TPrngskPqwUp89Fl2E1o1+dS9ectK6eqcWAcspAjk3mZwEpUfnmmMn5dv9drA/FQMQ5Z0GjW+QwlIGScGR4b+jVlTEv/1Q9d6Jkt0FJO2iHPTALo2S3aWAXfk7EngfcSq9WHEwu6PzzNXj+5x9IRn1RLjQmJcC6BAUVMGNs+mnc9Cz3OuBMF+dllxp+kRhWvrr69eyI25nggQV+Fuv5dWbZilfqOOzmc9kXjHqSPBStApr/vz2CNdyccjTJOebp7x0o2FMksIp4AxvdMUtxlHNiKsIhIpLboqyzZ8l5z5xEjnkHNOo1U4ly8OnasnY1d6+ciuWZjNGo3DCmp7ZTYlv4rHmESHNb8PTLSRO7fsRxVazVFZvpO7Fg7CxkHt5+QgKE6z91/LkCtxl2wb+sStehrvPvqNOl+3NvO5t2n9wvxRBOvHUmpemjvBuWdUL95b9f704qFLtAP7V4PYSHlOg6+Ti2IS4YJeQfK+7jDAPFuamMZz8af77unPijvkSsuuVB5+TpZJPZUXyj8HhICXUDcPGgsTmnc162bu1jP29frguyCLLw8ezw27l/rYtir6QBccsq1ygo/e8OPmLy8/H7APs0G4areNyqRvnTnIrwy50nbZ3CyC/QJTz+OHt26us0dbog7Edhml3F9NVoEvrjCf/F12cBR4+65AyOGDlbC989NW3DtjbeU42lcQ344eDAdz770ahkLtXygH7n/HjRrenxh5ccZM/H0hJdd9ZgFuiwUyECMjIoqEyzOTqDXrJmCZx57CPXr1UPmsUy8+ub/MG/BwjLt1NsgrvtvvfMBJn/3t7u9cQ/6b3179cTYO29RqVxm/zIPj4x/RtX55kvPo327NuXysQeKpxmwtwJdD6Jj57ouOWSvufxS5ekQjIAblU2gW71EPAk8/RxjsisTEfnQ/fzJnWVcop0EKBKLc8O2Q5Tr3+p572PV3LIeD7pVxc6CrlvIrYSBYRV2suig35+7ve9mdvo+T8kd/9u3j5fJMy4sxAVZrHRWCwUGd90FX67fceA1StDXaXpKmfRWRnmzy6rd85PJnFgAuo64GSn12qrJoxVvceEbfvUbkGByVgJe7lt3hU/fvVblxS4qzHM7L/BWoHce8l+073eFqtMq+rTZSuVJoJuFubyzjxw5iqkzZuLjz7/wGJDL20m8UV5ffMnLOYoFkx/C3q1/lGGle5DYbcHQXdhF5ItAl0m7PFfxspAFMRkfYkUyC2vzg/FlD7rUoVvIrdIaGhZ2mUhbLaTZdRBv2uMvT2NM6942xiT+8J4NqF6vNbavnunyCDHK2707AiHU9e/K0uUrPG6z8KYvmvvN/MmPIG3j34aEYE7mvXl/Bnq8+3JfgRDoujfU3q2LVZpBs1VYFpsHXvQsYhOqwWq8i0iUBVB5F4t4nPPJHTh2eJfrlmTM9z7rAbW4JwLe6ptXxlPFxlqvv0OdpET0lqnO085DqNPg/0C+nXJPVgvC8lvb3peomBbyjpc4M+ZDf3+aF6D0NoiwnztprDrdWNTXY9LoC5Dm74m/33d37Hwd/94+jxNZPmQEev/mQ5V4joyIsnRzr1WljrKQi7V9y8E/8fSMcWXc251Ak9Rp95/2JFKrNULakR14cvr9yM4/ZnnqyS7QvRVuZgj6apTdx04PzGC358tohztXaX1vtPlaZoEueQ4NN+1t23fgv7feqSaFTvagu+sjyso+eqQq8u0PU/Hiq2+6iluxNAR31arJ+OyLyfjf+8dd88177mU/phyB4mm+B2+fs5Nn5kugHSfjzygjiyYd27dFZESk49Nke8H6jX86Lu+poLcprIz6nKZ+8kWgu4ug7s6dWix4EnhKRKs78exyuy7Kt5z4GxYwiVRstijrv+kfaE+c5XdvJpiG66y7iY5unTZPJPr961GIxT49bQ1mvHe9mtSJqBUPA7FwihXsj7+i1OuTL/NEwlMedHlWR/Ztwqp570GsGlaHPlm2SqnlmqwAblNu6XV7K9Cd8HQFuwNsLeh2wvzr76coTxx5B3tzOJ3EG3XK4lOfsx+EWNbs9v/qVjd3QQz1CfWR/Zsw68MxaNh2MLqffgciwiMdp9HyRhCb2Rj9VBYbdI8OKWf85m0gRm/a4y9P8Urpdeb9ajFDLI+y7cYIPrZlxY+K58Gdq1wTeaPferLsi1AXK5gsgBseVk4t6r5O0D31RRGLkhrPcJOWd6O4MntaTPNmPLgrG+j3p5Px7k/bPfE06nb3jXRah7t2GoEWpYxdSkNZ8BVLvXjBWW0n0ceUu/HYc9RYSM56b+KsOGWss3ASH8Zq0c/JtcRrbdiVryIuMaXcgofd8zD6pv69Ne+ZXzv/722rTr5H7r7v7u7D1/HvhE1FlQkZga4LYisBbuxTjwiPKOfe7g28B854Bi1qtfGYOu1kF+hPPfYQ+vXu6TgXqJmhO8Gql/UkEI3fJU+3BFSbOv2nco9r8IB+uOu2m5FUpUq5vWNmgf7uhx+73LTFov3mO+/jm++n+i3Q3QXd8yTQxfVe2iWHnUAPFE8zPE/8rcaGuNqfcepwtb/cHOlW36demaJhOnlHeCt+3H4srnlbWVqdWJudXNeYEEdERpcTUfqH1d0E2HBRdzeJMES8eTLisq5HxTkWkwYfpxNMT5ZFoz53kzdjIUPnLpOChKp1sH7h52p//4bfv1D52w0rjexJ1oPKyXU8CXQpI8GBxPq6YvZblkHg3FnIdTFpZ2G36l9O+opxXpmI4Tbp4qSsu74lv7/1ygQVAFO2IYnF/GB6Or6fOt0nYe7kGVrdt6d928Y5Tvm4rEVh4fhz6TfKci6TdG/2kXojiM33ZNyPeLzoaQ31ZybbVGZ+cKPjfNvetMdfnoaVTBY6DSu/CKJOQ65XgfrE/bioIMeVv92YmFu59Fs9bzuhPm/+b3jw8acsX72+TtC92e7kKQ6Ik++Mt2V8eX+6++54Gu/ets9c3qm4difQ9W+aeJVJAE/ZOuHNYSxEuNuSpb/rrZjpY0oXoXbjWSzYnryQvLkHKeuEpxH/ISW1vaM5h1Ub3L0/PAl0fd5hJ9AD8X13O+fStk5640Hj7fM4keVDRqDLTf+n/+3o22ywpQu74QKflX8Mz898GNvSj+8h1A+ZQPRpOhintz9bBYoTd3e7Y1/mbjw1fRyO5pRPcSLnnOwC/bKLzsdVl12i3JRlBXrf/gNK/O7euxdr12/AqjXr3O4T1IXx1GkzsGbdBkuUZ406HR3atbXNw+1EQMoe8HtuvwUpNWqoVGr/ufl217WsBLrsi7/1puuREB/vChbnyYLeo3tXXHz+uWjTuqUrgrtd3zDvdw6EQA8UT3ObnfA1n6PzM7uw6y7wleUl5/SF6nRy76Q+Xyzo5sjH+nXcpcbRP4juBLqTiZ7dPnPD2ltYkO1or7TedifXlfL6BEEmZb//8LQl6sTqqWqvrezRNVtTDatJfl4mZk+8BTnH0pV3wfF0Vc9j4IVPY+/m31XkaUNkyEXM+7+N5yd7iBf98DQkeI4cEVGxSG3VH/peeNnP9/Nnd1lOII0FD/MkUVLVyX5nuQc7F06rm/emj+o83U3YPaVdUpG2GzbAnr178d0P0/D5V+4DrDoZH04mndZ9qAArZr9pGflcyrcfcLXaW+9uLEk5WSAZdPFzkL2b4mURhjAUFeW5XN6d3IM3gthcn90+c90t19t9zt605+8x6RtPq4CMvc8ch4bthqgtJO37X6H25ouwkrEz4uo3Ub1ua6/3bou31TWXXwL5fteqWRPuvknBFOjFRQXKqugkk4aTvuNNGV/en/6Md2/aZlXW6dh2943Ut5zINcTTRLw05LsgnhmSHUP2QLs7jHelLKTKOzzr8PEgv+bDXbwYp2OqQesBOOWMuxAZGaO2l8kicKCOQPCUtshiWpteF6J5t7NVnBirYLJGm83ziEAI9EB8390x9XX8B+o5BaOekBLoXRv2xH8H3InoyJgyVnJdLP+5fx2enH6fWsnXDxHn1/YZg37Nh7qNWm6cU9kFutzn/XfLHvFBlpHLRbQfOHgQ3/7wIz7R0pUZfAxB6bTTiYujBHgzp0nxRUDq17QS6OL69tqEZ9CieTNXELOb/nMtZNXdSOdmuJZLXRIg7rprrlAWeidHMAW6k+tLGTue5vN94WvFb9HiJapqw7ou6eJ0zwCn7T6Zy3kjfjzd58kq0PV96HquXyOYmi/uc75MMD3xNX43C3RDbEr6FxEKIrDFbe/o/i1Y+P2TKoiVRC4X93fDklSQl6ncnDPSt7su6+n5yb7GQRc/q7wkxAq69KdXseH3SeWarbvrSeA/2dssh2Hpd7etwYqBN300kAJd3q2+7je3ug+nk07jXG8jqHsS6FKvvodV/q0/Hyf9z+nk3aou3ZqkW+aMQGQS+Er67+5N1tsnrOr0pj3+8tSvZezdVWnsajdTY0kiOtdt3lMtkom4knGXWK2eZdR6d6xla8XZo89Avbp11Lwu2AJdIvevmXc8d7ps65Go17LQ4CldopP+4msZX96fJ7tAF1bifj7o4udVYDarw5MHk/GudMrdkwXd0/YMp9fxtpzTd6XboHsOotnr7Qq2QHfKwJt0hhToTqn6WE4isd9/+lOoX7VhmX3mhnCPiojGpCUfYPra8vlLR7QdjYu6XwNxgRcr++Jt81UU92N5xy0fxnF1n5vRJKV5pXdxN+5XUouNPuM0tGzRXFmczSnORKjLvu7xz5ZNCRbKAl3u7abrr1X51OWQPZC9TuluKdDbtWmtXOIlP69MMGUvs0RcX7d+Y5l+0b5ta4w8/VTLFA2BtKA7HRrBFOjShjtvvQlnjjwdJZqbuy7cxeNCAt+Jt0Wgj1DYg251T96IH09MPAk8/Xwn1z1RFnR94m0E3tH3uHu7/1zu05cJpie+xu/mD/jf0WaP51suyMtCv/Mew861c5T1Syx5kdHxyrIn6bokZ7y4Nf/0wY1KuBuHk+enPxM7LnqwOGMCWJiX5bIoZh3do4LDSdRwJ4eTvmLUEyiBfumF5+FfZ41yZbqQ+iViuyzGvjvxY6/3n8v5Tiedxr34Kyit2MqeUbXv/K90Qd660nojiN29b/RAa2KFbtZlFLzdfy71e9OeQPA0xoi4rS+WsXXVGwgPj1RjqU3viyBu9OL+LuNr6BWvqDR+EvTRSL1m19/lOyTf9jNHnubqc/LtFg/AL77+VqVQsjp8naC764t68E27RTgn49afMr68PyuDQBdmYvWVHObNu4xGUo2GyuPIbPm125ZCgf63h4FkMWnV/VwVDC8ncz+2rZ6pcrcXa0FJ3WWBCLQF3el4oEDv2qusKdopuSCVu7zn9RjWZqQS2YYru/G3jNwjeO6nh7HryN+WDqMZIuxb1W6HnIJsvPrz01i393hwLvPxT9mDbvd4xBLSo1sXDOzfFyJeJU3asawsFRRt5pxfXKdZWa59eeS+WHj169i1o1eP7rjvrttVTnSJIB8dHWUp0PXgbKvXrsNd9z9kOaEM9h70QPE0PwNf+er7/g2rhP43c555X5693TmhEMXd3YTZifXNEw8nAs+ow4noOlECXdpkjtYuE6NBFz2jhK1V3mZPLHyZYPpqrdCD2clewPycDJXeaeUv70CC1ci9SYRpsey16nG+EkNW13Ly/JxuLTCCxRUXFyjBcuzIblcaLbsUbHZMnfQV49xACXSpz0o0yd99Feq+CvRABWHS0w7JhDUmvioiIqKxcclkFUTQyeGNILaqzxytXSbMhiu4XRR6d+3ypj1Ox6S76xnB7GT8SEpDCbaVk3lAeacY97ZiztsqgrYE+FMB5SbegsP7rIN9Sh+77KILMPLU4ahWraor5oEnYW60Uf+u2GUosbofd31RtkAMuOAplUbT2wUcJ33ISRmnzyqQ491Ju+zKOB3bTt6xVteQWBEN2gxU72+xssth5f3izbvS7l68GVP+MHN3rr889QV2q/SRVt+LYFvQff2+u+Okz+HnL/wd9z30WLAeyQmrN6Rc3OWuO6V2x40D71Zu7mItn7NxGsad/hQa12iONXtWKNFudm/XXeC3H9qM8dPus4zwLnUadZ3sLu7XXX0FLr7gXEuLr9Pe8+wTj6B3z1NUsDBzTmyzhfr1t8umbXJ6DV8FpFG/O2Fr1C0R5DOPZaFRg9RyLu7G+e6iyMu1jPuVBYtguLgHiqeZuz98333jFbRs0UzFJxBr+aABfZXlQlh98PFn+OizwO2j0ttNgV72KTqZSLgT6IEMEictM+83N6IYi0uhpLuRiao3h9MJpuwLNgSKXbRaT9fV65DVdxEHkmbMCGQlFspG7YcpS16LrmeibrOellHBnUwenQp0PVicuANLqh+JCi2Cxdt0TU76isEoUEHidObuhLrTHOhSn9NJp3Ftw/Vb/q0HVfPUH6x+1/efS6q136c8q/LWixjTU695qtvfybt5v/nWFT8ej6KcUMPrQIzSVm/aEwieekDGpTNeQd9/Hc89L2LdiBK/Y80sSKR86e8yFsVzxbx32F9hbjwnPZXpjl1p+M/Ntzny7nDXF2UvtKTqqtu0h8q3vXjKMyr/9Ik8nL4/gzHefblPJ2M7EEHN9Peq1ffC6J+F+Vlex01xIlp9YePLOU54Sr123yz9fHcecFWq1VeLbAnJdcotWgfCgh6I77s7fu7m8L5wD4VzQk6g6yJ6zZ7l+PyP9zH21MchKdLs3NuT46rivtOeVIHh3An05jVb49ah45AUmxzSLu6yd/z0EUNRWFRUJoWX3mGMVFhSxte9wmNuuA7nnjVaWdHNolTPhe2PNdUfASn3606gG+nZwsLDVcA72adm3oN+921jMPqMU1WgPPMihM5Tz9ceDIEeKJ6BFOjGC62oqBjvffQJunXphB7duroEezDc20PhpWfXBm/Ej6f7cCLwjDqcXNedQA9UmjWjPXrE9mWzXldiSlKX+bL/XOp0OsGUsob13pvI5uZnYdQhVkixoBt7YcVyJ23pPOR65QnQqN1QtYfcKhiXk+enPxNPFk+jTRKZWzw0GrQa4NO+Vid9RefhJK2NL2mX3An173+cjv9770O3Q8TppLNcn4yO93qvuLkhegT3LSunqsUbPfWa00ju3ghiKxhlIrbvWKHuS1KXSUBDb/efeyvQ9VgT3u69N+7FsJLL1pANiyah46DrVIAs8VQxnq/kRN+3fZnaSmIlom78z7U4Y8QwJCcnqWqduLLbdSzpk2+9PAFNGjeCXdpXq3M99UU9jkT67rVqS4qnFGviqfjQvXehebOmau7x+x9L8ehTzzpaMDC30Zv3ZzDG+/13345hQwYhMiICu9J249W3/gcjZo0VT92LyS7yuTsx6OnbavwuuelHXP2W6mtWLv16poJlM1/D+oWfOa3aVc7fMe71BS1O8NQ/jVPsvll6QEd3Al3/ngXDgh6o77sdUyNzVWFhISZ+OkkZmU72I+QEugC9oNuVGNnhXKRnHcAvf87A2Z0vVi7vz0x/AHsydlkyv3vEo2hfr4uti3vVuGq4cdA9Kgd6QnSiR4EuFzHc4Q9np+PZnx7C3gzrKJCB7gR6XnBx37734cfKRFwX9+57bhsD2cubeewYnn/pNfw8b76rGW1atcRjD96LOrVrqw+V/D5vwcIyzZSP2VOPPghZdbYS+eL+LosAdWrXQlZWNt5+9wN8O+XHMnVImXvuuAV1atXC4aNH8NyLr0EPziaFgynQ9ZRgksYtLi6unEDXhbGdi7ukQBs+ZBDiYmMRGRkZFAt6oHia+5o/fCXX7Ng7b0G1qlUx99cFaNasCVLr1UNlcQ/ydlx6K37c1e9E4BnnO7mup0jbrr2SpSVYu+BjlepIolMbR5OOp6HnqHsQGRXnMVerPimRoElJNRpAXIK92Q+ms/Fmgtmm98XoOvxmFVV766rpWPjdE+XSTLXsfg46Dvq32ou4bsHH6n71Q8+5LH83okmL+63BUdKjSUoayflu5bbv6fmVCRJXWgJPE0Bjkl9cmA8JDBebUA1GcC1v+qmTvqLX58rFHhaG7WtmKs8Bub5x6MJU/uZtiiAroe4k+4PTSafRTn0vvwjCuZPuU1Ye/ZAyEqVfgkrJ3v6fP7u7nLVWv18JCjhr4hhXmU6D/6O8R9z1Pf16+sKYr4tXxvMU6/LBXavRtNPpQUmTZO5jgeBpjCURq9K3mnc505Wu0HiHSF/LSN+BRm2HlMutLG0ysq/4I8z1ezMMFyWlpfh+6jRMePl1j8PLU1/UUyKKh4UTrxcj2KoEtpMjP79ALYJ/ahGQ11MDvXl/Bnq86xlfjHZ6mh/oXgeSvUIWwMxxB1yLZOERlu9BQ1zLWFz72ydYPqv8c6zVsDMGXPgUYuOrWm5T0i3sdotuVWs2Rb/zHkd8lRSk716HXz6/p8z7sTIIdH0h0M7FvVqdFuh7ziMqHamkHQ2WQA/E991qvOjz68qUHjgkBbrsJRdLtwSF25eRhobVm0Ks6bL/3O7Qg8Tlykth61wVJC4prio6pZ6CTqndkF+Yh51HtqFj/W6OBPp5XS/HqI7nqUtuT9+M71d9gUNZB8s0oaC4QNVldrv39NJ197sIzyceuh9NmzRW9e7dtx+L/liCbdt2oEvnjujWuZNrxdluMiSB0YYOGqD2cYlIX7BwMdasW6/yojdqmIqe3bujebMmCA8Pd0VCN6+KykdGXtBSpqCgAOs2bMTiJctU0zu2b6f+kwmatFEWCB5+onxaJH8EpFzH095t/T6lvNmCbg4SJyvAS5avUCw7tG+r7qFWrZpYt26D4i33EwwLurQtEDzN/cZfvq+98CwkzZ1wkyCC4k3h60TCnz4fCud6K36kzfLxk5Ql5sNI3WJO0yXlsjL2udJ2yb+dXNeTQE9t2Q99z31UfVxFmKenrcWOtbOQcXC7ct9Nbd0fB3auQu1GnVVTDZdvO+76PvSomATExCV5dC2WgD6yXz08PKJMtWJ9l/RnkqrInCJLgriJmDIOmRANu+JViNs+SkuRcWgHtq6chgM7VqBmgw5o0HogUlLbQSaBdpMNY0IrrviSN15Ewk/v36CsXsZkXPhUr9sSUTGJloGrvEmzZhZ6Vkx1QSS/y3YBmQzKfdkdVjyNNGJWqYNysw+XE6T6Xmudp9y/pCNr3GE4Mg5sQ3KtJpA2eivQjbbrQn3nrt24few4t0PakyiyOlnEc6dB16mFGRFKaRvnY/uaWapoass+aNBmkLoHuU+rSb1Y3IZc+iJqNeykzhfX9m2rprsu5el3qzbpQcTSNi3AkX2byhQ7tHu920jshteT6CgAACAASURBVBApzM9WgeGq1W4BJ4EYZZzEJVQvcy09yJM5TaG8EyT2gZ5L2l+exjOURkiqwbpNTynjSixjSPb25+ccVR4KW5ZPwcLvx5dp88T/vaH+7S74mzffBj1NaNruPbjv4cdVcDl3h5O+6BIWYeGO0iLqHnnGtc3zCnObAvH+DPR41/f1Gu0Vnpf/+wa3TPXvlYw1CSS4Y+0cxCZWR9OOp6kUl3K/edlHMPfze3AwbU2Z+mRvubhby35zeX/v3rRQbS3IydjnSnUp9cg4kPG+Zv5ErJjzVrk29T5rHJp1GqmCo4nnkizM7lo/V7Wjfos+SG3V7/iidXEhlkx7QXmx6EdlEOhyP3qQONliIovfEvNCFjEkbag8j8xDO1RGEkmHGCyBHojvu1XHEyObZGsSreKPx68375oTUTYkBbq4ud976ng0q9lSMSgpLcGni9/FzPU/2DIRIXpdv1vRp9lgtQJuPvKL8vDBwjeUlV1yrXvagy7ny972u4c/qqzudoeTenx5kCNPG4Hrr71SWTftjh07d2HCK69j+crV5YqIi5WI12ZNGrtNOyfCe9Lkb/B/700sV4dMuh65fyx6ntJNdXyrQ8T5ytVrMOGVNyw/hP4KSE8C3bzCa5dm7fprr0JiYoLlPWzZuk2lm7vhumuCKtADwdN8A/7y/e+/r8aF556tPAfk2Ld/Px56/Gms32gdyMeXvnyynONEKJvvxdtoyHK+WQQ5ua4ngS716lYJczvFgrDxj8noOvwm9ZMngW7sQy9FqXqf5uVmYPbEMTiyf7Pt49Qnuk6fuVWwGMkRLcJH9sLZHeICv+j7pyzFj5E+zfAg2LtlMeZOGquqMtwvZYImE8SighzLwFWGQPd0HyKq5n05TuXo9XTo1i0nrrLe8rTzcNC9J8xtFGv08llvoOuIMX4JdKNeecfVrVMH8k51dzgRRebzZVGmx8i7VURnuxy+8sxlEr7oh6fK5aXXJ6nbVs9Qe6V1LxO5nh4UTKzasz+6xW2EfbMHgrnNnrxOXPvQY5NgjDXZVrLut0/c8vM2QrVVcD1/eRpjSdKnyQKD/Cfu37IQIIcEkWvQdrASWLJwaLX4I8YIWTQP5GF8E2VusnT5Sox79Am3ruVO+qIu1MQqvGDy8f32docvFnRvx7tc2+r9Gcjx7osFXdrlpG+JcF8x+y3bnOGysNtz1FjVd9wdsjj082d3lRvvco4suvU/73HUb95HiXSrQ/qn5C2X96D5fVBZBLpwGHzx80qIWx2GV5LMD+SdFiyBLtf29/tubr8Ic2N+LwGvJV7W1OnWmR4C+Z45EXWFpECXGx/d8Xyc2/UyNTkUV/dnZjyAA8f2uWUiIv20tmdhaOszkJJYWwlTsXBvPfgnvlj6gUrd9p/+tzsW6HIxSf128SnXolvDXoizeFEES6DLtcX6e+F556i9wVUSE9X9yH4msYjLKtF7H31axvXdDEdc4K+5/BIVCE6Evi6y8/LzsWtXGr7+fopt2hKjPslFesapw5Bavx6ioqLUn+V8WaGeMXMOPv/qa9vn4q+A9CTQ9dRg6oOVfghPPDOhnKu9RCiXoHqyYBEdHa2s/jKYxWvgrXc/QNdOHXHHmBuDKtADwdMM2l++emAdqXv2L/NUwLh/4uFEKJu5hJJAl7bVb9lX7fcUC7SIGAmQI3tAF095DrUbd4FYFOTwJNDlQy6R28XCLIeToG2BmmDK9cQS2q7f5SpXuYhpmfDJ6n525gHsWDMT6377VFlErA5z23VXcj1QjZxrl47InUCXdoi1WqxCa+d/ZNsOc9uMvd4yCfTkEi/nesvTnRhMqd8OXWTyldpeLUyIYBOXziXTX1TfWEmD5Y8F3dv3hRNRZFdnvea90L7/VahRr7VK3SWH9PNDezYoYbtn86Jyp+qixZPw7jLsJrTrc6ma0O/aOA+/fvlAGbdXc+XiHtr9tNtdbPXfPQl0c390GtAqEALdaKcvPOVcc9vNbv5GkC4pG6jo+076mb4FUOZLvy5YiCeff9FWpDvti/oCm2z9+fXLceUEndE+X/agezve1Xxn1yoVNd98BHK8e7sHXW+LXd8Sby7ZhmUX0d+oQ5h0GnI9ajXs6PoWyW/Gt2DriqnKeq5v2zGzkG+HpGpr0/sSJKc0Uu8/sbrn52UqD6bVc9+zbUdlEehqvEbHqUV82UYTG19Nvd/kfbN/+3KVgjQ7Y78r0FwwBbq/33f9+Z49eiSuueISpW/sUkY7eWeEapmQFeihCoztIgESIAESIAFvCOgu7v4EwPPmmixLAv9UArpVTRbjD6anK0PElOk/uTVq/FN58b6DQ8BqK4qnK5WUFKuFY3eLDp7qqOy/D+jbG+ecOQod27d1Gdz+WLYcDz72pE+BGEOVFwV6qD4ZtosESIAESKBSEEhtNQD9zn1E7Xf0FPG9Utwwb4IEKpjAiKGD8d9rr1LBdI3D0z7wCm4yL1/JCHjr6SK3L55hsyfe4tG7oJKhcnw75jS9EuT6l3nz8fzLr1UqcS5AKNAddwsWJAESIAESIAHvCRgTtYrKpex9i3kGCZz8BESci0jv26sHEhISygWAPfnvkHcQygQo0AP/dAyBHhsbo2KdTJr8LWbMmhP4C4VAjRToIfAQ2AQSIAESIIHKSUDfxygR6yWQlkSg50ECJHBiCEismnNGj0ReXj4mf2cfbPjEtIZXIQES8JWAxE0a2L+PsppbBcj2td5QPI8CPRSfCttEAiRAAiRQKQgYOdAjIqJ8ziVfKUDwJkiABEiABEiABBwRoEB3hImFSIAESIAESIAESIAESIAESIAESCC4BCjQg8uXtZMACZAACZAACZAACZAACZAACZCAIwIU6I4wsRAJkAAJkAAJkAAJkAAJkAAJkAAJBJcABXpw+bJ2EiABEiABEiABEiABEiABEiABEnBEgALdESYWIgESIAESIAESIAESIAESIAESIIHgEqBADy5f1k4CJEACJEACJEACJEACJEACJEACjghQoDvCxEIkQAIkQAIkQAIkQAIkQAIkQAIkEFwCFOjB5cvaSYAESIAESIAESIAESIAESIAESMARAQp0R5hYiARIgARIgARIgARIgARIgARIgASCS4ACPbh8WTsJkAAJeEUgMioWPUeNReP2wxEWFo70Peswd9K9yD2W7lU9LEwCJEACJEACJEACJHDyEaBAD8Fnduo1b6Nmg46qZUcPbsXM929Efm5GmZZWr9MSQ694BTFxydi6ahp+++axELwT/5rUrt8V6DL0Bq8ryTy0EzM/vCmkBY1xb8VF+Vj43XhsXzPT6/sMhRPiqqRg+JWvI6lGQxzctQoz3rs+FJp1UrdBH9tyIydLH+lzzkNo2vF0xT7r6B7M+vBmZB3dW+ZZdBl2I9r1vVz9Td5psyfegsP7/jzhz0sWP3qfNQ4RkTFYPvtNrJ0/MWBtcPfeOhneTQEDEWIV6c+lqDAX8yc/grSN88q10vj+8lmF2ANkc0iABEjgH0SAAj0EH7Yu0IuLC7F4yjPYsmIqBbrDZ3UyTKwo0B0+zH9gsZPVgq4LdKv3ltzXsCtfQ0r9dhTo9IY44SPbvHCyc90czPtyHAX6CX8SvCAJkAAJkIAnAhTonghVwO+6QJfLW00k/gkW9Oi4JCQm1yn3BNoPuBoN2wxCQd4xLPrhaWQdTitTpqgoH8cO7UJpaUkFPD1nl6RAd8aJpU4eAoZAz8ncj6iYROzd8nsZAVSjXhsMuexF5GYdQpVqqRArZmW0oJvfW/LvXqPvRWK1+jgZFg9Pnh7nXUvNAt3Oy4MWdO+4sjQJkAAJkEDgCVCgB56p3zUaE4TsjH2Ijk1EUWE+5nx8G47s3+yq+58g0O1AGkKgIl1k/X3IFOj+EuT5oUZAF+ilpcdd8/WtJu37X4lOg67D/h3LUadJ90rr4m5+Lvo2EAr0iuu1xju3MD8LBXlZiE+qhWUzX8P6hZ+VaRQFesU9I16ZBEiABEjgOAEK9BDsCcYEQfZmRkbGqP29a+ZPxIo5b1GgA6BAD51Oyz3oofMsKrolxrgUEZpxcBvqNe9VJr7C0MteQvV6rbFj7Wy07P4vCvSKfmD/sOsbAl0WdtPT1qJ+iz5I371WxUooKsxz0aBA/4d1DN4uCZAACYQggZAR6E4+ik6sjnGJKegy7AbUa9EHMXFJKgqyHOLunJd1GJuXf4/V8z5ASXGh28chk8v2/a9CjXqtVSAhlJaiID8LB3etxso5b7sNbKRPVMWClJBUG12G34Saqe0RHhGlrp2+ex1W/vw/7N++tFw7dBYy0W3QeiCOHtiCnz64EQW5maq8Uwu63EfbPpeq+xC3UznEspV5aBfWL/wU21bNKOcKrosuWRSIjq2CVj3OR3h4BLatnqHcyqvVaYH+5z6m3DbFZXXZT6+q3+wOf3ia6/RGoEs07BbdzlbMF/84AZuXfWfbRqNeJ2W9Gcs6T6fnuQsMJn26ScdT0ab3JUhOaaT6lPTv/NxM7Nm0ECt/fhvZGfvLXUraISKpaq1mkD3CS6a9gE1Lvy1XLjI6DkMufRG1GnZCaUkxls16Q/UVOXwJ3FdZg8cFsm+Zt7XoD8Ubq2tCcm10Gnw96rfsg5jYJCAszON4lz5Rt1lPpKetUUH+jK0hRkA3c1/U+/PKX/6H1XPfU83V33ubl32PzkOux/a1s1QAy+SUxhh25asqcOOhPRvUmHTnASN9UN5bTTudgYSkWggLj1BjOPPwLmz8/UtI/Z62sMhed/29K/ch790l019U7XESJM4XnuYBVZEWdCfvSicB8+Sd07rXRWjZ/RwIE3nnGIdYpPdvX44/pk2wfO/oPPzhqQts2Roh/eeU0+9EnabdERkVp95VGenb1WL29tU/lXuv6fOHzct/QPMuo1FSUoz5Xz2E3ZsWuMo7mYvI97fDwGtQq1Fn1ziT/invXfnGrF80yXKOYTwPeSeu+XUieo4ei/jEFBw9uO14poasdPT716Oo37IvSoqLsHXlj/hj2gu28xV/eDr9FrEcCZAACZDAiSdQqQR6YtW6SlgkpTRyS3L/9mX4+bO7UFSQW66cTER6nXmfmhga4t5cqLAgBytmvYGNf0y2vI4+URX3ua4jxiAqOr5cWdmD+fuUZ7Ft1fQyv+kThE1LvkHnYTeitKSoTNRZTwJdJri9Rt+HRu2G2t6HLDrs3vwbfv3qwTIs9AnlluVT0KDNQCXS5ZBJkEQ9bth2sCvYk/w9L/sI5n5+Dw6mrSlzL4HgaQbnZNJpnFO7cVcMuugZtTixa8M8zJ001vKZSTT84Ve/gao1m0K2FohV5diR3QEZkYEU6PJcB130LOo07qbEl9UhCyaLvn+qzKTTKJfash/6nvuo6o/HDqdh9ke3lIu0bbgiiyjauf4X/PrlOJcYokD/m3gg+1YgBHrjDiNUejard40au6Ulynq96Ienyoz33meOQ7Muo8rtj1ZCoVU/hIdHYuXP/4d1v32ibt4Q2zJm9EUv/b0n1+h/3uMozM9Rbu71W/RFjzPuxKal3yEqNkFFe7cT6McX/x63f4+XlmLf9qX49csHymW3MJ5Ok46noeeoe5RwMx952Yfx55Jv0K7vZW6juPvK03y9k12gyzu891kPoGnH02zfOce/AYcxd9J9KpuD1eEvT12gL5n+EmQBKb5KzXKXkm/U6nnvY9Xcd8v8pgv0ZTNfR5veFyGxaj21SPn7lGdcZd0JdGEh123d84IyixTmRhzas169N81ZDIwxIpZ7OYyAifL/ezYvwpF9fx7PcvDXu13GrNyHsQimX8dfngH5uLESEiABEiCBoBCoVAJ9wPnj0bDtEGXtPnJgM0RcHtixQoGr3aSbstqIu7j8vva3T7B81uvloOriRAR02sb52L5mFqJi4tUERSblYj0Qkb5g8sNI+3N+uTqMj3DWkd1q/3h0bAK2rZ6pPsApqe3QtNPpSK7RSH2ExaI0++PblIXcOPQJwvyvHkS/8x5X7daDxXkS6KeccSdadT9XXUOCNsnEfM/m3xERFYs6TbqqIGvxSbUVi41LJuOPHye4rq9PKGUx49jhXdi3bamyiInFXKwUcm+bln6PFl3PVK6Ccp21Cz7C8llvlOERCJ5mwN4IdD1ytDvhLQKi33mPKXFjF93X1xEobZAFn9jE6q4q5PmltuqvLCNiZcw6sqdM9WI9kWcm7PVDrH7NOo1UvEXgSJld6+ciuWZjNGo3TPUvmURa9Sujni7DbkK7Ppeqf25ZOVW5IRtHjfpt1QJAXGINNbmU2AdiwXX9Xq+Nsu4Yh3iXNOt8BmITqivBb+VFIX1l68ppvuKzPG/sHbdi1OkjHNeZk5OLF159AzNmzXF8jqeCgexbIhQk3oR+9Bx9LySwmhMLuv7cZFIvLrw71s5CxsHtaoFNFupEUFuNd7NlUrbWSB+S95AEOIuJT0bahl+x8Pvj/cRYmAgLj8Rv3z6uxoscZs+hPmc9oCyM0r+kb9ZtdopaZGzYdpCtQJc2iqW9Wu0Wrve4ePmI1V28cJp0GH78vSXBM02LRwY78RARrwB5jxnfAqMOee817jAcWYd3IymloVq4s0qz5g9Pc7852QV6s84j0WPUWERERCEv5yi2rfwRO9fPRXFhHuKT66DVKf9SMQVkQU+EqSzImBe/A8FT76cZB7YhuVYT2/ef1ffZ7IFXr0Vv1Q/NweLcCfTWPS9EtxFj1L3K+3fX+l+Q9udvikXtxl3QoM0g17ddvvc/f3pnGU8PfYzIu13/hublZiDz4HaVclP6jCwgyALT4b0b8NP7N5Rxww8ET0/vN/5OAiRAAiRQcQQqjUAXgTDiqjeU1cUud7g+UTK7jMsj0H+XiciCyQ9h79Y/yjydjgOvRYcBV6sPtEQpFnFtPvR0Q5npOzDnk9vLrKSLFXTwxc+ria5MIFf8/DbW/PqhqxrzBEGuKYsLYhk1gsW5E+ji9jbwomdVBPQjB7aoSYJ5wqR7G5iFq85Bnxw073qWsoKJq+gvn4+FiPcq1eqr1EkJyXXK5WMPFE87vk6DxHUe8l+073cFSkqKbN3cxVWyVY/zlOu3VVq7QA9RJ9s1zNc0omCLiBExPOeTO8oIeLOla+Pir5TbqfnQXdhlEUoElAh9OX/wJROUEJJnLFYlT8K6ovagh4JAF67B7FtOXG2NZ2u8c0Scr13wsdqGo7uA12zQEQMvfEotpIgb7awPx6iFNjkMF2fd3dd4rsWF+YiIikH20b2ud51RXvbt6lHYzQJdynUdfjOkH9Zp0k0tbIp4EwuknQW9Te+L1TlhCMPWVdOx8LsnytyH3nfFtVq8f0QI6YfxTORvVnXoLKSMlUD3h2dlE+iGh4W73OEGLxHGZpdxffHGl/5p8NS9d6ys9eb339ZV09T2CvP5xpYNWTzvd+4jyotCDxZnN+6k/8r7sUbdVsg5dhDzvri/zOKlXEf/tkv/NL6T5nGq/6Z/Q/VF7oEXPoMGrQdYLtAFsn8G+tvG+kiABEiABPwnUGkEeiCEgljf+5z9IMQyZv64G6idWM2c7GVObTVATQ5khdx8LfMEQaznyk07OsEl5j1Z0J10DUOUmidVdiyNiXlO5kE10c7JPFBmUcN8H4Hi6a9AFyueWIXFTd/KzV2e6Yir30T1uq3LWVOccPSljC8CXfbkdh12k7qceVHHaIMsvMiCiVhkrSwvRjldpBzZv0kJNtm20P30OxARHmkpbKzuMxDjzhd+bVq1RMMGqY5PLSouwqo163DwYLrjc5wUDGbfcirQ9cVJd9Z2u8UEscaJxVmEyqLvn1ReEMb75cDOlcoiKOLMsOIZfdd8LbNAF/djSasm7wlZwNu39Q+Vds2dB4yxH14W3+Z8fLuyyJoPfc+0ldfOiKveVJZ7d3UY7z4rge4vz8om0L3xWLIaM4HiqQt0q+cu165WuzmGiPdEYg3lai8xFewEetrGX13vfennMz+4US0GOR13du8HcX/vduqt6uelM17Ght+/cBW1Ymm8Q2WMGONPTjCPJ/GKkiNQPJ2831iGBEiABEigYghUGoEurphiQRf3RivXXCd43X1Y9fM9TViM3yVPt1jYD+1eV+7yxj5OCWpnnkiYJwiFeVlKdMl+NSPqrIj2oVe8otxW7RYTPN2znUj0JNAlEI6RPkkva25HoHia78MTf3N5sawMv+oNFfTMKvetvpc40O7tds/AF4Fut6BivobTCabLGyQsHH8u/UZZzkXYW3l92N1HRQl0T337RP0ezL7l9Dnq7xI7rx7hYRcMTLfgGdZkY3Ft4+Iv1biRlFRGXAbDomoOKmcWFPp7Sw+8aDd+9YUydwsN7hYn9e+AuzqadDgVvc68HxGR0eUs6P7yrGwCXfcusgss6W68BYrn3+/MgjJCVr+2u+dv9c41Fq0kAOwvn9+jtsQ5HXd29+wu6J57gV67TNYDO4EeKJ4n6h3J65AACZAACXhPoNIIdLl1fd91YX62siBK1N6Du9bg6P7NSpy5O/QJwIrZbyoXbquj/YCr1R5uOxdrJwJSVsEHX/wcqlRPVYHVxA3dOKwmCLKXu/Pg61FUlKf2ceZk7PMo0GUi22nI9ajVsKMrgrvV/biL0qwvHhgTD6cCPVA8/RXocr7Br1jc3Kc8gy0rprqqNSZpxcUFZSZI3g8n52f4ItD1hR+JpJ91OM3ygk73LosgGnTxc2r/qFiOxK1Y+pfh8u7kbv7pAj2YfcupUNAFq+zLXjPvfctHJwtRnYfeUE6U6hY5Y5FNvDW6DL0BS396RaVGk+CCxmKj4Xpr9kaxEhQS6bpNzwuRnbkfcz8fqxZP7d6PTvdquxPoTutwJ6L85VnZBLoeWFICsMkWMslmcnT/FojlWRZC3GVFCRRPp+9McUOXjCmyDejnz+5WwevksDpf3zZkBIvzNO6sIqfbvSvN2ycCIdADxdPJ+51lSIAESIAEKoZApRLoniJci5vmvq1LbNPBeBuh2h+B7u5xW00QdNc9sfLKnnV3FnRPEV716wdboDvt2k73lDtZADFf08xPXG3l0C2gToJxOb0XT+WcTjb1evTYBp7ql9+d3I9MZCVeQWxCNVWlOaKxp+tQoJd1q9U9MPztW56EgvFs9Am7p+dl/G4WDsa1DAu8WE2bdj5D7SeuXq+ViuFgLNxI2ZTU9mpvuR7jwM7iZ27TySTQfeWpn+d00cDptbwp5+Rd6STNmiy0dOh/lWXkciO9mfSp3X/+na4skP3TTmB7w8LqnStjVLZh1G3aw+Vd1fdfj0C2AFm9P+XvEoxWBSB0cARboDtogipiFWfB6bksRwIkQAIkcOIJVCqBLvjkgyvRWSVvd/U6LdS+Yz1nq5SxSwcTygJd2m1YriSo2+Ifn1f75a1c3PUoxmLZEE8ACZaUcWBrmR4mIl4sZf8EgW41ERNrni7cvRWn/gzXUBHoEnxQ7Tv/K6+xXRRmu3utKIEeKnvQjXeOeZIfiL51IgW6IeQMt/Uhl76AanVbYfbEMahRv50KDrnyl3dUXubhV76OpOoNsGzW667Ua8KBAn2i5TCpDAJdbky2Vcn3QvKOx8ZXUwHR9MMuvVkgFpCCJdClXiP4qfy/pA2UrBRWAl3PMKBnSjAyxRgs7DxV9DGiL0b/vQfdmYt7oHj68/3iuSRAAiRAAsElUOkEuhUu+QDWa9YLrXtdgGq1mqsUVXu3LlZBiPRIx76IJqvrObFauHusdhNzI91NeHgEJL+65C62Euh6MDG7dHLuJjyB2oMeKJ5mVr7yNfbEy6KFWAMlnY3xN1mkkK0DaRvnBXfE/VW7L2x8vW+7G9IXciQVX0x8VURERJdLu+cOSEUJ9FCJ4m6wCUbf8kWg+xqPQiyknQZdp6yGP39yB/qf/wQio+NVrInqdVqpFIS7NszF+t8+xdArXkVUdFy57SCVUaD7ylMfM5VFoJvfAyLQxQNHFvkkZaQshOuZRozygQhoGkyBrgfWFA8SdV8WFnQ96Kldij9pZ7D3oAeK5wn50PEiJEACJEACPhE4qQS6MYk0W3yd3rmI2eFXv4GqNZvCKie2eSV987LvnFZdppy/QspuYq5P9GTVvkqNVEiQOfMk0pXyxiLNi95QSXfUru/lQbOgB4pnoAS6HlzHsJYbXgl2qfl86gAOTvJFoBvPyyp9j4NLlimi7z+XrR+/T3kWsgAk+9H11Gue6qVAP04oGH3LqUDXg7xZZSnw9Azld2OsqvzRXz8CcXEXTyOJgi1eJiLKJUezpHATsS6LXHqKNanDX4EeKkHiAsHzZBLo7gLmOek7UqbnqLFKqOvBAI1zA8XTl3em3n535xt9V+YFssggAVnNLu7G+Vb3qF/HGEuyYBEMF/dA8XT6bFmOBEiABEjgxBMIGYHe71+PQlyu3UU+N8SU073KVjgl/3j9ln0tA7zVb9FXTT6jouO93ourXytYAl2fCEnqIjkkurJZoBtRlt0JOZkMD7n0RZWOKFgu7oHiGSiBLvW4BPmBLSqPraRfS0pp5PXzvv/u2zFsyCBERkRgV9puvPrW/7Bo8RLHI9iXyaYeFV/P2+v4olpBPYL7lpVTlTVUT73mNJJ7RQl0X+452OcEqm8Z7XQq0PXI1b4uNBljVa696uf/QRZD0/6cr/JIG89YhMmGRZNUMM687COuqO5Ge/0V6FJPKKRZCwTPYAj0Xj26444xN6JO7VooLCzE9Jlz8NxLr7rt1n8vattHPrdbqPVmvLTsfo7aKhMeHllOlAaKpy/vTKcC3Uh7KluhMtN3olqdFuUEuuGZViKBRn+cALsFfD1WSDAEeqB4evN8WZYESIAESODEEggZgd6m98XoOvxmFUl607LvsHjqc2Xcz3XxcPTAFvz0wY0oyM100dLFoJ37mbiyDb38FRU53SoAjG5ht9unLmUGXvg0qtZqqoLKSJRYIz+peaLq60KCu4m5kRJMchbLRMEqj7oh5ISlJscnOQAADDZJREFUlYu7TEKEdZNOpyMmLklZPQyXb7mHQLm4B4pnIAW6Yd2QRQnZU9tp0L+BsHAVDGv3pvIBjqyG4+kjhuHWm65HQny86+f5C3/HfQ895nj0GpO9UpSWy5VrV4m+X95OQIt3SL/zHkd8lRSVwUBSB5kjLOtjKSN9O2ZNHOPqw50G/0dFvJe+I3ELFn73RJlxaG6bHgHcalw6BlIJCgaib+kYnAp0OcewYNrtA5YxLxkdWnY7G5KtYMm0F7Fj3RzX5Qy3WVm427z8BzTvMhpr5k/E6rnvqTLSlsRq9bBj7Wy07nkhrJ51IAS6/h2w6n/ifqwWFht2gixA/vrVg9izeVGZ3mNkZZCtTLKN5bdvHy8zBvT+LydaBdDyl6e5OxvPUraSzProVpXK0NvjpWfHo1uXzq7TMo8dw/MvvYaf5823rcoQnvKdEPdt+V7p7wP5JgpPWaTMzUrHrA/HQN4JxuEkfan0LXn2Yom3824LBM9gCnTde0OMBBK7xjxHcDLHkG9vu36XIzouWcX1CIZAD8R497bvsTwJkAAJkMCJJRAyAl0XhbIvXNK3bF72PfKyDqNBm4Fo1G6o2m8tv62a+65r4mjgkg+skStcP18Co4VFRCrXXXHhlUA3ctjluxZxInsxw8IjlKtv2sb52L5mljontWUfNGgzSLUDpaWW4lfKBdOCrt+nce9mC7q+t1gm7Pu2LVFiS1jWa94TDdoMVgJOFjIatB6gqgmGQJd6A8HTPCT84evab5hcV+WUF1dGsTqaF3zcDcNrr7wMl150PqIiI13Ftu/Yicv/fYPj0SueC2K9l4mgTNq3rf4JxUUFrvOLCnKxZfkU5emhH73PGodmnUaqOArymwimXevnIjaxOuq36IPUVv3Uok1xcSGschbrAsdwbd+2arrrEp5+t7pBiWos+zOlr6VtWoAj+zaVKXZo93rHix+OAYZgQV/7loigxOQ65e7ISJeXdWQ3JK2eviCZlbGvzL9r1G+r+lNcYg31jkxPW4sda2fh0J4NqNesJxq2G4LkGo1Uv7EKBKgHqpL+JO/cP6a96LISypiT/iUBJxu2GazyRf/0Qdn+HgiBrgfiknfskQObsW3VjOP30bwXmnQYjvik2orVttUzlIVfjyMif9fff1JHxqEd2LpymmIi6TEbdxiOjAPbkFyriXqXWwl0f3maH6Zr0QDAob0bsHreBypVpn4UFeXj2KFdtgtiH73zJho3Ov79kqOwqAiffP4l3v3wY9vRoHtKGTzlvSI8Zd+4ztNuv72+4CHBD2V7kHxTSouLkFyrKZp2PE19X+WbKYvWsz68WaXT049A8AymQJe26vcp/zYLdHPfTN+zDttX/+QaYzI3SK7ZGGkbf1WeaVZ9KxBp1qRtgeAZgq9QNokESIAESOAvAiEj0KU9jdoOUZYgmbBaHqWl2Ln+Z/z23RMQAWM+nKZAcee+K9aAHiPvVhYkmXBYHTIhFGG06IenLNvhj4CU63mynBk5vWWyLYfVxKpJx9PQc9Q9SqyVO0pLlWDfs2URep95v/o5WAI9EDzN7feXryEojXrN6aI8vR0CYUEXLr3PekBNbo3nqF/XzvtCBHT/8x5H/eZ9LM+TOpQr8u9fYPmsN8pN9sU9uVX3c9W5dgJHJtsDLngK0bGJKpfw7I9uKTfh1ttqtkia+QUi0JanZxIqv/vSt7zNHiH3aiUqPb4/RXSk78Cvkx8st4gi/dFIn5afcxThEZH45fOxSpDLIa7Ssi2iMD9bLSpZPdNACHS5lrgX9z/3cWXVtfsO7Nu+FL9++UC5BSyjvLv3n3hHydjoOmKMrUB39D1yw9PcblkAGXrZy8rzyu7wlBbRFwu6XEvEnPTLBItFIKMtB9PWYN6k+5QV3Xx4Sl9qlLda8NPr8qd/Sj3BFuh6TnS5nl2atYH/3979vNi4x3EA/1KiCOXHlFn4keTHZZqGchURcrsr2QglFjcLpfwVykbZjTVKNrK5VrNQfhUxGxMpSbfuQooVK/p8dfR0Zs4ZzTnTfMrrbE/nPJ95fT7Pc+Z9nu/znOOXSqwcmuoR+8uLsdGy/8TlWQ3o/Z7PLMdPdRAgQIDAD4FUAT0KWrxsoAwdOFcGN+0pCxctrUEiAsenD+/KxKOb9WxK+xmTZjOnen08H6+JM8jvX90v42PXOv5j13qvOFvzx94zZcWazSWWk8cjllTGmYeXD29MWlbZrKHXADldQG8udY7tdgpAA+tGytCBf8rKwa31DrtxhjPOvL18cL2uTohVCXFGNh6zFdD74dm+s/bq27zL7kxvuNbrNeh155s3v2zfd7Zs2nWs/mxRM6h3uzwiXrd+x5Gy5c+TZdnKtT9+RvDbt/L1y+d6ZjOWJX/8//WkY1wztEwXvIcPnS/b9pyqNcU+E2Gofal8cwMRqnb+dbHe1bn9Zw1/p4A+k9nqV0Dvdvz8/PF9eTv+b5l4fKtjH1vX0Mf7tC93bt74Kp6f6guCfgX0eP8IhXEZyIahv8vipavrl6Uxf/F3vHpyux6/un0OxHvE6pjhw+d/zmQsv47LPp7eu1Iv4Th4+mrXgN6rZ/sOGGdUR45cqKuWFixcMmn/nC6gz+Qa9NZGYtux9DqWocdqmziGtD4P3jy703Uu4j1in96y+3jZOHK0rvZofnkdx9AP/02U8bHRuiqp26PT5/uvzOdsB/TmT3HG39CpH3FDyPhyZ2DdcP0CvPW/xZvnd+vKiOWr1necrX6dQW8Z9+LZtVGeJECAAIE5FUgX0OdUw8YJECBAgAABAgQIECBAgMAcCQjocwRvswQIECBAgAABAgQIECBAoCkgoJsHAgQIECBAgAABAgQIECCQQEBAT9AEJRAgQIAAAQIECBAgQIAAAQHdDBAgQIAAAQIECBAgQIAAgQQCAnqCJiiBAAECBAgQIECAAAECBAgI6GaAAAECBAgQIECAAAECBAgkEBDQEzRBCQQIECBAgAABAgQIECBAQEA3AwQIECBAgAABAgQIECBAIIGAgJ6gCUogQIAAAQIECBAgQIAAAQICuhkgQIAAAQIECBAgQIAAAQIJBAT0BE1QAgECBAgQIECAAAECBAgQENDNAAECBAgQIECAAAECBAgQSCAgoCdoghIIECBAgAABAgQIECBAgICAbgYIECBAgAABAgQIECBAgEACAQE9QROUQIAAAQIECBAgQIAAAQIEBHQzQIAAAQIECBAgQIAAAQIEEggI6AmaoAQCBAgQIECAAAECBAgQICCgmwECBAgQIECAAAECBAgQIJBAQEBP0AQlECBAgAABAgQIECBAgAABAd0MECBAgAABAgQIECBAgACBBAICeoImKIEAAQIECBAgQIAAAQIECAjoZoAAAQIECBAgQIAAAQIECCQQENATNEEJBAgQIECAAAECBAgQIEBAQDcDBAgQIECAAAECBAgQIEAggYCAnqAJSiBAgAABAgQIECBAgAABAgK6GSBAgAABAgQIECBAgAABAgkEBPQETVACAQIECBAgQIAAAQIECBAQ0M0AAQIECBAgQIAAAQIECBBIICCgJ2iCEggQIECAAAECBAgQIECAgIBuBggQIECAAAECBAgQIECAQAIBAT1BE5RAgAABAgQIECBAgAABAgQEdDNAgAABAgQIECBAgAABAgQSCAjoCZqgBAIECBAgQIAAAQIECBAgIKCbAQIECBAgQIAAAQIECBAgkEBAQE/QBCUQIECAAAECBAgQIECAAAEB3QwQIECAAAECBAgQIECAAIEEAgJ6giYogQABAgQIECBAgAABAgQICOhmgAABAgQIECBAgAABAgQIJBAQ0BM0QQkECBAgQIAAAQIECBAgQEBANwMECBAgQIAAAQIECBAgQCCBgICeoAlKIECAAAECBAgQIECAAAECAroZIECAAAECBAgQIECAAAECCQQE9ARNUAIBAgQIECBAgAABAgQIEBDQzQABAgQIECBAgAABAgQIEEggIKAnaIISCBAgQIAAAQIECBAgQICAgG4GCBAgQIAAAQIECBAgQIBAAgEBPUETlECAAAECBAgQIECAAAECBAR0M0CAAAECBAgQIECAAAECBBIICOgJmqAEAgQIECBAgAABAgQIECAgoJsBAgQIECBAgAABAgQIECCQQEBAT9AEJRAgQIAAAQIECBAgQIAAge/plLJibz8hwgAAAABJRU5ErkJggg==;" vertex="1" parent="1">
          <mxGeometry x="80" y="100" width="1000" height="220" as="geometry" />
        </mxCell>
        <mxCell id="Ez9eSVSXWY47dWGgBNc--2" value="" style="shape=image;verticalLabelPosition=bottom;labelBackgroundColor=#ffffff;verticalAlign=top;aspect=fixed;imageAspect=0;image=data:image/png,iVBORw0KGgoAAAANSUhEUgAAAyAAAAEACAYAAABLQxJ3AAAAAXNSR0IArs4c6QAAIABJREFUeF7snQd4VFXext9MJr33BBICoYYOgqDYGyuWtevaO6yFVazfqrsruquurrrKWnGx965rBwuiqEjvICEQ0kjvyUwm3/M/8YY7kyl3WhLie57H73Ode88953fOTM57/y1kxOTpHWAjARIgARIgARIgARIgARIggR4gEEIB0gOU+QgSIAESIAESIAESIAESIAFFgAKEG4EESIAESIAESIAESIAESKDHCFCA9BhqPogESIAESIAESIAESIAESIAChHuABEiABEiABEiABEiABEigxwhQgPQYaj6IBEiABEiABEiABEiABEiAAoR7gARIgARIgARIgARIgARIoMcIUID0GGo+iARIgARIgARIgARIgARIgAKEe4AESIAESIAESIAESIAESKDHCFCA9BhqPogESIAESIAESIAESIAESIAChHuABEiABEiABEiABEiABEigxwhQgPQYaj6IBEiABEiABEiABEiABEiAAoR7gARIgARIgARIgARIgARIoMcIUID0GGo+iARIgARIgARIgARIgARIgAKEe4AESIAESIAESIAESIAESKDHCFCA9BhqPogESIAESIAESIAESIAESIAChHuABEiABEiABEiABEiABEigxwhQgPQYaj6IBEiABEiABEiABEiABEiAAoR7gARIgARIgARIgARIgARIoMcIUID0GGo+iARIgARIgARIgARIgARIgAKEe4AESIAESIAESIAESIAESKDHCFCA9BhqPogESIAESIAESIAESIAESIAChHuABEiABEiABEiABEiABEigxwhQgPQYaj6IBEiABEiABEiABEiABEiAAoR7gARIgARIgARIgARIgARIoMcIUID0GGo+iARIgARIgARIgARIgARIgAKEe4AESIAESIAESIAESIAESKDHCFCA9BhqPogESIAESIAESIAESIAESIAChHuABEiABEiABEiABEiABEigxwhQgPQYaj6IBEiABEiABEiABEiABEiAAoR7gARIgARIgARIgARIgARIoMcI9FkBYgYwJsyEHBOQYApRQGptHdhtAzZYbLD2GCLnDzKbgDEDLMhJtiI+sqNzfC0h2F1lxobiMLTbenmAJqA9xwpbig0dUZ3jC2kOganShNDdZqC3x9fLePh4EiABEiABEiABEiCB3iHQ5wTIhDATzooy4wAzYA01IzrcjGizyBGgyWpFU5sV5nYrfrYCrzdbscbSsyfpCdkWnDGlGQcMaoW1IxQxkSZER3QuXlMr0NhigzmkHT/visAbK6KwtiisR1e2PdcKy3QLrEPaEGoLgykqFCGRoWoMHS3tsDW3o91kgbkgHGHLwxBa2MmWjQRIgARIgARIgARIgAR6gkCfESDJphDcEGvG+PBQZMXHIiYqEiaTySkDm82GxuYWlNQ1YG1bO/7VYEWVrfMtf7BacowN1x/bgPHZFgxIMSM22gzTr5YZx2fabB1oaLKipNKKNUVheOjzWFQ1Op9LoMbbEduB1hNaYMttR3hqNMwxkQhxMb4OWwesjS1oq2iCqTAUEf+LREhDp5WJjQRIgARIgARIgARIgASCSaBPCBCxetwZF4bMuBgkxcd6Nd/qugaU1jfir/WWoFlDxOrx15PqkJUSiuSEcK/GV1XbhpLKdvztg/igWUPE6tFyRjPCUqMQkRjj1fhaaxphqWhG5JtRtIZ4RY4XkwAJkAAJkAAJkAAJ+EKg1wWIiI/74szISE5EdFSkL3NAU3MLyqpqcEt94F2yRHzcc1oNMlMjEBPlm7tSY7MVpRWtuPXtxICLEBEfzX9oRFRaAsyaL5iXFK1NrWjeW4uoV2IoQrxkx8tJgARIgARIgARIgAS8I9CrAkTcrv6bGI7c5ASfxYc2XREhhVW1uLSmLWDuWOJ2tfDCagzOCvNZfGjjExGys8SCy59PCpg7lrhdNc1uQOSAOJ/FhzY+ESEtxfWIfjKW7ljefYd4NQmQAAmQAAmQAAmQgBcEelWA/D0+DEcnxXntduVqfuKOtbi6HrfVWbxA4PrSu06pwzFjbV67XbnqUdyxvlhvwh3vxgdkfC1nN8M0McxrtytXDxd3LNtqCyJfiwrI+NgJCZAACZAACZAACZAACTgS6DUBIq5XdyeEY0RWekBXZWtJOW6vbfM7HkRcr+afUodRuYE9jG8pbFYCRILT/WnietV6dgtihqT40023exsLKhHxWiRdsQJKlZ2RAAmQAAmQAAmQAAloBHpNgPw9PhwzU+MRFxMd0NWob2zCpxV1uK2uza9+xfrxuwkdiI/1Tyg4DqKuwYJP1oT4bQUR64f5gAiExQVWIFnqm2H9uZVWEL92D28mARIgARIgARIgARJwRaBXBIiEcn+YHI7crHSXqXZ9XTJJ0VtYUo4Tq9p8LlYoRQbfv2YvhgyMdplq1/fxdaBgTxNOXpAGq68lTExAw821iM1Jc5lq19fxSYreht17EfvPBBYr9BUi7yMBEiABEiABEiABEnBJoFcEiLhf/T0xEsMzU4OyNNtKK3BbTYvPbljifnXXqfUYOci3rFyeJrVlVwvueCfOZzcscb9qO7sN0UOSPD3Kp8+bCqoR/lo43bB8osebSIAESIAESIAESIAE3BHoFQFyYoQJ81JjMTA5MSirs6eqBg9WNODDVt9MDCeOb8b1M1uRne5dzQ+jkykqb8NDn0bgw7W+uU9ZJrfBdlIHIjMDE8zuOO6W0jqYPghB2MrgzN8oJ15HAiRAAiRAAiRAAiTQ/wj0igA5LyoU16YnBCz7leOySDasR8tr8VJzu08rdu6BTbj2uLaAZb9yHIRkw3r0s3C8/KNv8S9tM1qBE0MDlv3KcXySDQsftiN8WYRP/HgTCZAACZAACZAACZAACbgiQAHihAwFCAUIfzJIgARIgARIgARIgASCQ6BXBAhdsOiCFZztzF5JgARIgARIgARIgAT6OoFeESAMQmcQel//YnB8JEACJEACJEACJEACwSHQKwKEaXiZhjc425m9kgAJkAAJkAAJkAAJ9HUCvSJABAoLEfqXwYqFCPv6V4vjIwESIAESIAESIAEScEag1wSIuGHdnRCOEVnpAV2ZrSXluL22zecaINpgpBbI/FPqMCrXt1S5ria1ubAZf3k33ucaIFq/Uguk9ewWxAxJCSi/xoJKRLwWyRogAaXKzkiABEiABEiABEiABDQCvSZAOq0gYTg6KS5g6Xgl/e7i6nrcVmcJyArfdUodjhlrC1g6Xkm/+8V6E+541z/rhzY5sYKYJoYFLB2vpN+1rbYg8rXAiq6ALAY7IQESIAESIAESIAES6BcEelWAJJtC8N/EcOQmJyA6yr+q403NLSisqsWlNW2osnUEZHGSY2xYeGE1BmeFISZKIld8b43NVuwsseDy55NQ1WjyvSPdnR2xHWia3YDIAXEwR/tXs8Pa1IqW4npEPxmLkIaQgIyPnZAACZAACZAACZAACZCAI4FeFSAyGHHFui/OjIzkRJ9FiIiPsqoa3FJv9dv1yhGQuGLdc1oNMlMjfBYhIj5KK1rxf28n+u165Tg+ccVq/kMjotISfBYhIj6a99Yi6pUYul7xN4IESIAESIAESIAESCCoBHpdgGgi5M64MGTGxXjtjiVuV6X1jfhrvSXg4kMjLyLkryfVISsl1Gt3LHG7Kqlsx98+iMfaorCgLKaIkJYzmhGWGuW1O5a4XVkqmhH5ZhTFR1BWh52SAAmQAAmQAAmQAAnoCfQJASIDEnesG2LNGB8eiqz4WMRERcJkcu6qZLPZ0NjcgpK6Bqxta8e/GqwBc7tytT3EHev6YxswPtuCASlmxEabYTI5d1Wy2TrQ0GRFSaVVWTwe+jw2YG5XrsYn7litJ7TAltuO8NRomGMiEeJifB22DlgbW9BW0QRTYSgi/hdJtyv+LpAACZAACZAACZAACfQIgT4jQLqsDWEmnBVlxgFmwBpqRnS4GdHmzviLJqsVTW1WmNut+NkKvN4ceJcrT9TFGnLGlGYcMKgV1o5QxESaoIVfNLUCjS02mEPa8fOuCLyxIipoVg9X4xRriGW6BdYhbQi1hcEUFYqQyFB1eUdLO2zN7Wg3WWAuCEfY8jBaPTwtOD8nARIgARIgARIgARIIKIE+J0C02YnkGBNmQo4JSPj1TX6trQO7bcAGiw3WgGLwvjOzCRgzwIKcZCviIzuD3mtbQrC7yowNxWFot3nfZ0DvMAHtOVbYUmzoiOocX0hzCEyVJoTuNgO9Pb6ATpadkQAJkAAJkAAJkAAJ7C8E+qwA2V8AcpwkQAIkQAIkQAIkQAIkQALGCVCAGGfFK0mABEiABEiABEiABEiABPwkQAHiJ0DeTgIkQAIkQAIkQAIkQAIkYJwABYhxVrySBEiABEiABEiABEiABEjATwIUIH4C5O0kQAIkQAIkQAIkQAIkQALGCVCAGGfFK0mABEiABEiABEiABEiABPwkQAHiJ0DeTgIkQAIkQAIkQAIkQAIkYJwABYhxVrySBEiABEiABEiABEiABEjATwIUIH4C5O0kQAIkQAIkQAIkQAIkQALGCVCAGGfFK0mABEiABEiABEiABEiABPwkQAHiJ0DeTgIkQAIkQAIkQAIkQAIkYJwABYhxVrySBEiABEiABEiABEiABEjATwIUIH4C5O0kQAIkQAIkQAIkQAIkQALGCVCAGGfFK0mABEiABEiABEiABEiABPwkQAHiJ0DeTgIkQAIkQAIkQAIkQAIkYJwABYhxVrySBEiABEiABEiABEiABEjATwIUIH4C5O0kQAIkQAIkQAIkQAIkQALGCVCAGGfFK0mABEiABEiABEiABEiABPwkQAHiJ0DeTgIkQAIkQAIkQAIkQAIkYJwABYhxVrySBEiABEiABEiABEiABEjATwIUIH4C5O0kQAIkQAIkQAIkQAIkQALGCVCAGGfFK0mABEiABEiABEiABEiABPwkQAHiJ0DeTgIkQAIkQAIkQAIkQAIkYJwABYhxVrySBEiABEiABEiABEiABEjATwIUIH4C5O0kQAIkQAIkQAIkQAIkQALGCVCAGGfFK0mABEiABEiABEiABEiABPwkQAHiJ0DeTgIkQAIkQAIkQAIkQAIkYJwABYhxVrySBEiABEiABEiABEiABEjATwIUIH4C5O0kQAIkQAIkQAIkQAIkQALGCVCAGGfFK0mABEiABEiABEiABEiABPwkQAHiJ0DeTgIkQAIkQAIkQAIkQAIkYJwABYhxVrySBEiABEiABEiABEiABEjATwIUIH4C5O0kQAIkQAIkQAIkQAIkQALGCVCAGGfFK0mABEiABEiABEiABEiABPwkQAHiJ0DeTgIkQAIkQAIkQAIkQAIkYJwABYhxVrySBEiABEiABEiABEiABEjATwIUIH4C5O0kQAIkQAIkQAIkQAIkQALGCVCAGGfFK0mABEiABEiABEiABEiABPwkQAHiJ0DeTgIkQAIkQAIkQAIkQAIkYJwABYhxVrySBEiABEiABEiABEiABEjATwIUIH4C5O0kQAIkQAIkQAIkQAIkQALGCVCAGGfFK0mABEiABEiABEiABEiABPwkQAHiJ0DeTgIkQAIkQAIkQAIkQAIkYJwABYhxVrySBEiABEiABEiABEiABEjATwIUIH4C5O0kQAIkQAIkQAIkQAIkQALGCVCAGGfFK0mABEiABEiABEiABEiABPwkQAHiJ0DeTgIkQAIkQAIkQAIkQAIkYJwABYhxVrySBEiABEiABEiABEiABEjATwIUIH4C5O0kQAIkQAIkQAIkQAIkQALGCVCAGGfFK0mABEiABEiABEiABEiABPwkQAHiJ0DeTgIkQAIkQAIkQAIkQAIkYJwABYhxVrySBEiABEiABEiABEiABEjATwIUIH4C5O0kQAIkQAIkQAIkQAIkQALGCVCAGGfFKwEMDYvCIxkjMCwsCrU2K27aux1fN9WQDQmQAAmQAAmQAAmQAAkYItBvBMiEiFg8k5mPOFOooYlrFxVbW3FO8QaUtbd5dV9PXpwRGo5XB4zBAHMEHqkuwn9qitw+PtYUiqczRmFyZBw2tjXi4pJNSiy4aifEpODB9OGwdnTgj2Vb8E2za0FxdWI25iZld3X1UWMlri/f1pM4+CwSIAESIAESIAESIIH9mAAFSD8UILIfb03OxSUJWahqt+Ci0k3Y2tbkcpvOT83D2XHpEDF2bskGlFhdizFaQPbjbzuHTgIkQAIkQAIkQAJ9gEC/ESBhISFINJlhQogd1sOjE3FXah4abO24ce92bGxttPu8HR2obrdC/n9fbd5aQGQeh0Ul4vGMkTCFhOC68q34tLHK6fT01pIlTdW4tnyrsoSwkQAJkAAJkAAJkAAJkEAwCPQbAeIKzsyYZDySPgL1tnZcVroJa1obgsExqH36IkBywyLxUtYYpIWGYVFtCe6tKnQ6Rv11Rty7gjpRdk4CJEACJEACJEACJNDvCeyXAkRsHJMi45RVw51rkazeb1WARIaY8FjGSMyISsBPLXW4smwLmmzt3Tb00dFJWJAxEm0dNlxZuhk/tNT1+03PCZIACZAACZAACZAACfQegf1KgGjC4/aUwRgTHoO5blyLNKS+ChDtWRJ0fUBkHKJCTMpNq9jahrfry/FCXamyqji2MRExKgA8JTQMG9oaldVFXLwc26CwSCzKzEe2OQI7LM24qGQTyn8NhHcM9DayPZxZL7Q4kL3tFpxXsgGFlpZuXWnXyBjOL9mIynaL3TWegvuNrIF06AvPEeHReC4zH+EhJlxeuhmrWuvV2BJMZjyblY/R4TFwDILX1nt1awMuL93kdI2M8OQ1JEACJEACJEACJEACwSGwXwgQR+EhKGwArinbgsVN1W7J+CJAJJ7kzpQ8nBqXBpOL3ndaWlS8hDMLzIXxmfi/lMHq3gU1RVhQXWQXYWIOCcH8lDycHpeG5g4b5pRtxvLmfZaHQAkQLQ5EpuAsu5XeSuIq/iMQAsRXnuI+9uqAsUqk6YWOZAN7IWs0pN9dlhY7646wvy1lMBjPEpwfDPZKAiRAAiRAAiRAAv4S6NMCxJXwWNFSh3srC1WKWU/h0r4IkDmJA/GnpBwlICQz1HN1pVjaVIOB5gicFpeG42KSEYoQ/GJpxoUlG1HhYDWQg/G/00dA3JtqbFb19n6dLvZExvRA2jD1Zv+Z2hLcX1VoNw958z8yPLprbeWN/7VJ2SrIXoLJP2/qHlC+pa2pmxjSx3c8VrMH/67ebbdf5CD/StYYZJrD8ffKnXi+rrTbfnIW3D86IkaNXwLYjVhAfOWpD5DXW3gmRcTh4fTh2GppQl5YFM4pXg+x8kjTLDrvN1SoGiVsJEACJEACJEACJEACfYtAnxQgzoSHuD8tbarFA9WF2NbWbJiitwIkyxyOl7M6a26IG8/s0s1KRGhNxvbHxIG49leB4urgrnex+rGlTlkgJGYlNTQMz2eNVgX9xKXoytItqHNTo0Oe60sQutynt3Asa67FVWVb0NIhtqPOpllIxArjTYC+3iriSYD4y/Oh9OGYFZOC1+rL8ZeKHWrcsqZ/Tx2KN+rLcUpsql2aYe16BtQb/orwQhIgARIgARIgARLoUQJ9SoC4Eh5fNdXgvqpCpzEMnmh5K0C0oGzp11X62niTWcVvjI2Icevqc2JsKu5JzYM5xIR7KnequJGbknNxWUKWEjVzyrZgVUtnXIO75qsAkT7FknNV4kAUqXon+ywF+s+MFCvUj88bAeIvT238Yvn5U/lWZSkSF7Wz4tLxTG0x5iUPUiJRguf1FhNPwsgTc35OAiRAAiRAAiRAAiQQHAJ9RoDI23p5e31UdJKaqVg8Pm6oxCM1RT4JDw2XtwJEiyHwVMBPe9O+sqUeV5RtVtYNxybuS3en5uGU2DSUWtvUXO5IGYyIEBMerd6Nx2v2eHQhkz79ESCalcOKDrssV3rryIcNFapGiid3Nm1+3ggQf3meHpeOf6TmQc/5/rRhGBYehYerd+NfacNxT1Uh3qovVymHJWZEXNX0QevB+eqwVxIgARIgARIgARIgAV8I9BkBor29FqvCew0VeLS6CGW/ZoXyZWK+ChAtAFyeLW5TFVb7rFBav39LHaLEkjsBIteKK5dYSwaHRaoCfxKArnfJMjI3fwSIqzgPvWvUnyt2qAO80eaNAPGXp2ZBKf21Yn19RzueUmmDO3BnZQGezczHuw0VKr5Fi3mRebjK+mV0jryOBEiABEiABEiABEggOAT6nACZHBmnrB++xHs4Q+StBcTbDFSeBIiM6YSYFPwzbZgSH+J6dXHJJmxqs6/I7m55/REgekuH3o1pWmQ8nsocpWqDXFS6yWM9Ff34fBEgRrevI0/tWZYOmxqnpAl+MWs0fmqpV8H7CzPzVaKA68u3QYLTF2aOUumMnaUUNjoGXkcCJEACJEACJEACJBA8An1GgEj8x/SoBPw5OReSBUqahEtLxqu7K3dCsjz50npbgMi8tLgPbU53VOzAm15YHPwRIPJMTVTpa33MThyIeUk5KpOYCKJaD4HwvSVAtLlL3I24VTV2tKvaIM/WlaoYkEfTRyiXK3GDk6KLUvXeXeFFX/YQ7yEBEiABEiABEiABEggcgT4jQLQpSXrbg6IScEvyoIAIEV8FiLxVP6d4g99uYIdHJ2JB+giYEKIKE8obfXmLf2npJmw2KKr8FSCO2a5kHHJwFxcyfXYpo9vKFwuIrzzjTKHKyjExIlal/K1ptyrLzc17t6uUxPNT83BoVIJaq1Pi0pSocixOaHRevI4ESIAESIAESIAESCD4BPqcADEiRIzWAJG+vBUgWtCzu+rhRpdFH/8hcR93Ve5UB3+JB/EmDsRfAeIY7/FVU7VyYxocFuUy05e7OXojQPzlKW5rmliS1Lo7Lc24MzWvK22wWHIuT8jCxaWbcHZcBs6OSwdT8BrdobyOBEiABEiABEiABHqeQJ8VIEaEyO0VOzxmyPJWgOirh0ulc6mo7UvTZ8DSFyPUp+Y1mgnLXwGijwORAn0v15WpWIm2X+MqnFVzD5QACQRPsXKIsBBrjViPpPaHZp2S9X0wbbhKGCCV66VmiLdB9b6sL+8hARIgARIgARIgARLwjUCfFyDuhIiRWg/eChBJ5fpi1hhlpZBYgqvKtnYrFCjFBCUV7JCwKHzVXI27KnaqwHl90wsNydD0RM0e9bEIk3tTh0I+N1oLREsvm22O8MllSp6rxYFIccWvm6pVfRAjAfTOtpU3FpBA8NTGLq5V0sSydHnpJtTb2pVL2zOZ+fhvbTEOjUrE+IhYJUa+aa7x7RvBu0iABEiABEiABEiABIJKYL8RIM6EyIKaIhUH4K55K0CkrzmJA9UB3QSoDEvP1ZViaVMN4kPNODwqEefGZyDBZIZUEJ9TthnLm+vshqCvgu5MxHj63HE+4ob0UNpwHBeTrA7dC2uLscfaaneZBOuXWNtcotAsERXtFmy3NOGQqEQsqi3BvVWFLu+RAPqk0DCEQf5tXxsdEYMH0oapwn8SUP91077DvgUdqG6X/7uv+ctTW0OxRkkNldYOG8Q6JWmNNeuQFKucHhWvKs2LO9aGVuNZxoL6DWPnJEACJEACJEACJEACdgT2OwGiFyKmEMDS4b58ni8CRKwUtybn4tz4TCVCnDURH/+o3Ik36svtDttRISYsyBihDvgiFq4s26wsDY7tjLh03JWap/oXIbWgushtIcBJkXF4ImOkyvjkrHmyBmlxIJnmCHR0dCAkJATXlG3BYjcuZvrK4ka/N86sKv7wlOdq6XVtvxJ6q35vl3DSgtRzzBGINoUq8ROI5AFG58vrSIAESIAESIAESIAEvCOw3woQo9P0RYBI3/LOXw794v5zQGQcRFhIWmApiPdJYxWerS3pliFL7vlj4kBc+6v1xJ2wkEP5v9NHQArtiZi5pmwrvvXgNjQsLAp/ThmMqZFxCA+xl0aeBIg+mFvmZyTIPlACxFee2hprBQbFnUva3yt34vm6UvXvjvPy1a3M6H7idSRAAiRAAiRAAiRAAv4R6PcCxD88vJsESIAESIAESIAESIAESCCQBChAAkmTfZEACZAACZAACZAACZAACbglQAHCDUICJEACJEACJEACJEACJNBjBChAegw1H0QCJEACJEACJEACJEACJEABwj1AAiRAAiRAAiRAAiRAAiTQYwQoQHoMNR9EAiRAAiRAAiRAAiRAAiRAAcI9QAIkQAIkQAIkQAIkQAIk0GMEKEB6DDUfRAIkQAIkQAIkQAIkQAIkQAHCPUACJEACJEACJEACJEACJNBjBChAegw1H0QCJEACJEACJEACJEACJEABwj1AAiRAAiRAAiRAAiRAAiTQYwQoQHoMNR9EAiRAAiRAAiRAAiRAAiRAAcI9QAIkQAK/AQKRUWbc8s8jMWhoIlqbrXhj0Vp8+eEvv4GZc4okQAIkQAJ9jQAFSF9bEY6HBEiABIJAYMaxg/GH2RMRFR2GXb/U4L6bv0RLszUIT2KXJEACJEACJOCeAAUId8hvkkB2agQevmIIxuTGqPn/sKUe1z21AzWN+9+B7I+zsnD5zAzERoaittGKf72zB68trfhNrmtfmHTGwDhccM1kjByXhpCQEJTtqceL/1mJTWvKe3V4V948DQcePghAB77+eAdeWLCyV8fDh5MACZAACfx2CVCA/HbXPmAzf+f2fIzOiUZxZRuuXLAd24qbA9Z3sDq68Oh03HRaNsLNIeoR9c3tSoB8u7HOr0feckY2Lj02A23WDtz/dhGeXxz8Q6fGXxv4kjU1+ONj/rnW6Pn89/My3PdmkV9cXN188Z+m4NCZQ9THm1aX44E/f63+/a4nZmLAoHhYrTZ8/MZmvPvCBrfPP+ioXBxxwlAMzI1HZFQYQkIAm60DTQ0WbFlXjsUfbMeWtXuDMgfHTmUs5189GeLyJM3oHDwNTmPlS3/GnuPoAAAgAElEQVQiiq678xCkD4hFXU0rnv33Cqz5odjTI/k5CQSUQKC+7wEdFDsjARLoFQIUIL2CvX89dH8UIMGygPSGAAmGBWR/ESByyL/ylukYd0AmTKGdYtJZE1ejT9/egvdf2hj0L1+wLCD+CJBZZ43CyeeORlh4KLaur1DuV2wk0NMEKEB6mjifRwJ9lwAFSN9dm/1mZPujAAkW3N4QIMGYy/4iQObdfRhGT8pQFg9LWzt2bKnC9o0VqNrbjLyRycgblYzM7Hj1eVOjBW8tWoevPvLPOhQM3kb69EeA/Olvh2D8gVlot9rw2Ttb8eaidUYeyWtIIKAEKEACipOdkcB+TYACZL9evr4xeAqQfetAAeLdnvTnQCJv9U86dzTCw0NRXtyA1xeuwarl3d2Kzrh0PI45eZh6+78/B1/7KkDGTcnEpfOmIj4xEpXlTXji3uXYsbnSu4Xi1SQQAAL+fN8D8Hh2QQIk0IcIUID0ocXYX4dCAUIB4uve1R9IVi8vxqPzl6mu7nzsOGQPTkBbWzvef3EDPn5zS7dHSErZEWNT0dTQhtcWrsW3nxW4HMaN/zgc+RPT0VjfhucX/IwVS4MT0+IrByP3+SpAzrhkHI47dQRCzSas/bEE//7bt0Yex2tIIOAE/Pm+B3ww7JAESKBXCVCA9Cp+zw8/ZXoKzj0iDcMHRCE6wqRuaLXYUFLVpjIdPbe4HO22DqcdacJg4+4mnHr3Jsw+PhPnHp6G9MRwiLe8BF4v21iHB97Zg6KKVpeDkedKwPasqUlIiDZDnlbdYMVHK6pwz+tFePPPo9wGoT9+1VAcNSGxK0g9JzUcV52QhfycaJhDQ2Bt78CWPc1Y+GkpPlpR7XIcKXFmdd+xk5KQGm9GqKnz3j2VbXj3+0o8+UmpSxbC76lrhmFASrjT/jVGnlcEOH1GKmb/LhPZqeFqDE2tNqwtaMT8V3fhjBmphoPQxwyKxj8uGowRA6PQ0dGBn7Y2YN7CHaisd5+JS7OyOBurN8HvR41PsFsH2Vdb9zTjoXeLMXRAZFeQfjCD0E+9cCx+d8ZImM0mLP20QAVHS9MEg8RuSAap75cU2k13wrQBkMNMfGKEoUO19hzZvP97bRPef9l1LIinZzvjrgXNO/usurIZzzzwo6EsWMefOQpHzMpDclo0TKYQtLW2o6igBm8+uw4HHZmrAva9DUL/yyPHIHdYElpbrMr1askH251uc33wvD4hgOPF2lzdzWvKodn43ekjMSAnHuGRZuUCJ00SA9TXtOKHr3fhvRc3uE0DnDcqBTNPHaGEY3RseGdigfYO1Ne2Ys1PJXj/pQ2ornCe8EI/F9lX7720AadfPA4TDsxCVEznb0BzYxs2ripXnxXv8i/5hDOgjmMQ17czLx2vsqNFRJm9ZnHs74dj1IQ0xMZHqL3R0QG0NFlQsLUKn769Fet/Lu02DO3AL2v12dtbcewpw5GUGo2GulZ8+OomJdq1GCr5o7BzaxVeeWqNSwvZ2AMyMfO0ERgyMrkr2YPVYkNNZTN++GY3Pnptk9s19fX7buR3mdeQAAnsXwQoQProeslh+56LB+PQMQkwuYitlT9AP23rTB/r7NCqFyA/b29Q4kMOzI5NslbdsmgnNuxq6vaZjOPJa4Zh3ODOdLX6Js9fsrYGA5LDlZhwlQVLL0Be/7ZCHd6jfhVT+v5aLDY8/G4xFn1R1u1ZM/LjMf/8QZDgcWdNxrJ2ZyPmLSxwKqYCJUBuPyfHJUcRccu31CsRYkQIPHDpEJw0LblrOhZrBx5+v1gJMXctEALkkmMycN0pAxAZ1ilq9U1SEX/4YxXOOjRNZQkLpgA55YIxkEO3twLk+DNG4uTzx6iD2CdvbsE7z693y+yQ44bg3NkTERpm8phVq7cEyGU3HIjpRw5Sc3JsctD+ZVMl5GDvjQCZdsQgnH/VJHWALy2qxyN3LlNpgZ21QAmQI2YNxemXjEN0TJjLNZHv66bVZfjP3d85PbBKH6ddNBYxcc5fGMj9Jbvq8OLjK51mN9PP5bsvdiJ7SCJy8hK7hJB+YEUFtXjyvuUBFyF2Y1hciEF5icgektCNiYiy9StK1Ric1WWRvS7uhrKGrpqrJAt6AVJb1YLBw5O6uqgobcTan0pw+PF5yjqmNVfi89QLxuK400col0dXv8Fb1+9VLwxcCTpfv+9uv9z8kARIYL8kQAHSR5ftgcuG4MSpyeoPZkWdBV+vr8PyzXWIDDfhgGGxOGR0PFLjw9RbsA9/qsKNz3R3P9EEyM6yFnVfc5sNH/9cjYLSFhwxLkH9ExMZ6rYP/ThEIHyzvg5LN9QqS8gJU5MwMCUCZTVtykLjSYCUVreh1dKBmEgTvlxbi+821Slhc+ykRGSnRKi5ipC6/ukdqi6H1kR0LJw7DEMyItVYd5a3YPHqGiWYDs6Px5HjExQLacs21eGKR7Z3s4SI8JqYF4Oo8H1/aBNjzLjp9IHITAqHEQvImYek4razcpR4EqPThsJGfLmuFrv3tmLWlGQclB+HbXualRiTzz2l4XUUIGLNefSDYjzxsXsBIlacvIxIu507a0qSsswYET7TRsbhoSvyIOLSkedR4xNxxPgEZWEbmBKu9oejAJl5zFGYd+1ViI6OMvzt+fDjz3Dfg//udv1RJw2DuAjJAUifbveyeVNx8DGDIYemhf/6ERtX2YtS7SDTbrHh5SdX27lfidg46Zx8pGTEoL3dho0ry/Dzd3tUET5zkASIBHjHOBwQJT4lY0AsjFhA9PEssiZ7CmuxeU25itmYMC0LQ0eloKy4QVkUbB0dHkWUBvqS66ZgxrGdaY6XfV6ARQ93WpiCJUAkA9jcv85AZnac2lsyD0n3W7K7Xq3xqPFpGD81SwkLCYiX9MivPb3Gbjj5E9JVzIpYgaSP6oombFhZht0FNRg+JhXyuVgBpO3cVo37b/2q28Fdf/iXxARy8BfBIlYCOazLm3xJUiBxQerlxY/FSpwFsjkbg8QgCQ/J3iZjEFGkLF1t7fjg5Y346PXNdkM48PAcnH/VZMVLrD/CYNuGCuwuqMXgYUkqyULOkESVAU7cC198bCV+/Hp3Vx+aABGLh4jY1T8UY/DwZIyZnKH6E1FatLNWWURmHDMYUTFhTtM0y3fq7MvHKxEkvEqL6pRFb29JI0ZNSFdWHZmTJ5a+ft8DuS7siwRIoG8QoADpG+tgN4pR2VHqgJiWEAYRD7MXbO9m4RD3nUdm5ymLQHmNBVc//ouyAOibJkDERUvezF/z+C/KXUhrMycn4e4LchEfHYqyGgv++J/tdlYQecbjVw9DRmKYKtB3xwuF+GxVTdf9cqh/dE4e5NAq4sGTAJEbxUow98kdds/RW1nkD9izi8tw7xv7fPRvOHUgLjsuA6aQEGVxufaJHXYCQ+5/eu5wyHhlfne+vAvvLvccZKu3ihgRIM/MHY5DxsSrZ7/89V7c/eq+P/QyN71VwYgQkPHee/FgJd7kUGnUBcvZlvUm+P1v5w3COYemqW6c8TxuUiLuuiAXItCkBVOAaIc0R2Ggf3PrzH1JEyDi/qF30ZKAa7k3MWWfOJI9tXltOYaMSA6aAHG2JkZclbT7tHgWeRu+/MtdeOZfP9p1KdYAieOQA7NRC4heDEiczIuPrcIPX+1y+YsXCAuIWFwuuHqyOsi6Cvg/7Hd5OPOy8cpCUri9GvPnfmE3Jk00yW/KlnV78fT9P9i5WskaXzR3CpJSo1zGCOnnYoSpEZHo7Z8K/RhEYCz9pAAvP7HKrpsrbpqGaUfkqIKVztIjC4sph+bA1m7DN58U4I3/ru02DL3l7MdvduPJe5d3EyAiNj5/b5tK1KCvCbN9UyXuuWGJun72rdNx4GE5SqA5uj1qVkHlKvpNEZ57ZIWd6NNbvdzFWfn6ffeWPa8nARLo+wQoQPr+GrkcofYGXSwbd72yC299Z3/o1gRIY0s7bnuhEB87ia949voROGhUnLKOOPYhsSe3npGNiDATXBW3mzI8Fo/OHorkOLNHAeLuDf9Zh6bitrNzlEuQ47NeuXkkJg+NRV1Tu7L0fL2+thsTfdrY15dW4I4X7WMGnEH0RoAMzojEM3OHKcHnruCiNlYjAiSQW88bAfLWn/MxNjfaLU+9dcZRgKSlpWL82NEwh3YKFCNt1+4ibNqy1cilhq5xJUD2VfuWt+NVWPndHsiBVd4Sh0eEqvglT4UNfXHB8keASCD9lTdPVwdqdwdhLZbDqAA58sShOPOS8SrewNlB33HMgRAgRvtwt8haAoLmJgteeXI1ln2+s9vl+sB6x0O3XKwfh2RIe/iv33ZzPZM39iL8Bg1NdHroNrQR3VxkZAz6WKaKskY8cc9yFdPhTRO3vAuvOUBZSRzX2VXiAk0ci3vaMw/+pB6nXesoQIzuT+2712HbJ3a8mQevJQES+G0RoADZj9fb06HTSHYqOfRfeFS6U9edP/1+gIrXEEuHqzgA+ezt2/IhVhtPFpCGlnbcsLAAX63rLiD0QkZvjZC38C/dNBLDsiLdHvzFJe3hK/MQFxXqUiw5LrU3AsTV+Bz7dMczmFvN017Qni3uW89eNwK56e6F1MXHZEAsT8GOAfGViSsBoh3SHdPNanUw9Id3ceW57MYDkaSzlhgZjz5Y3t31Ri0g+gOk+M7fMedTp91qbmlGBci1f5mBidMHKFcb7e23u/EaFQ/u5qWfi7iMLZi/zKvYCrFSzfm/6UjNiIG7A7mnseo/F+vX/bd+7XTqGiOjTI3sD+0aT2OU60QE3f7wMcjKiTPkqufs+fp97Lh/PAkQ/V52JUDcCRz9eFzFd3jDjNeSAAn8dghQgPThtZZD9ZxZWcq1SMuA5Wy4rt62GxEg7g6u+mBnd4HInp6jBaFL1i0JmP92Y/eMM2JheHR2HrKSw7GlqBnnPdCZdlUvEtxZHoItQPT9u3PXMioEAr3tjD7XKM+eKkToKwdnAkTvWuJ46NSul+dpFpC+IkD0B1V3AsSbNLySQWrOrdORkh6NupoW/PfBn7BuhfvYIiMHZuHnToDIgfqme4/oCnZubrSgdE+9ijUQl6zdO2rcZgPTr4kIGImLcNbSMmNUli2x7jgLmjY6l/OumoSDjx4MceWTLFWSIS1QzegYPAlVsYydfN4YTJiahbjEzgxYrlowBIh+HlLk86uPdjh9/ND8FJWlzTGhRKB4sh8SIIH+RYACpI+u50VHp+P63w90mi3Kccj9QYC4WgajB2YKkGxD6X+N8twfBYj+8Op4KHWWBUsOy2MmZyrXLH2TNLjDRqeitdmKT97agr2l9rFVcpg24ibj6WCpPTMYAkT/NtpdSl39vAN1YBaXtwuuOUCJH2dNuG5ZvxcfvLKpW7pXX0ShPwIkmD//geA5YFA8xLVJsnhpqYzdjTnYAsQoL6NWQqP98ToSIIH+R4ACpA+uqT5LkcRNSHD5ZytrIOly9c1T5iNPlgnpq69YQChA/NuIPWkB6asxIO4EiKvgV2fUezoGJBgCRAtqt0ghRyfZlZzNOxAHZq1feWt/zMnDIdnB5N8jIs3d3txLViYJZtZbZihA7OvFSEax8QcOUOJDMlVJ5qnNa/aqmi5ak9gPyaKWkBSp3N30LnyBcMHS7wujv1IUIEZJ8ToS+O0SoADpg2t/02mS9SlTjezNZRW4/QXnAdWeDp0UIO4X15sYELpg7ctKFsg0vL5+/Zy5YFGAdNL0NbA5kALE2bqKGJFCgJMPzlYFJKU5VmZ3F8/gzV4xOhdv+vT2WqNjcGUp0wd/19W04oUFP6ukCo4t2DEgRufhLR9eTwIk8NsmQAHSB9dfi5lwl71Khn3X+bmQ7FHBcsEKdBC6uxgQV8vAIHRjG9STGNV6CUQQel8VIPoDm6NbzsnnjsYJZ+dDqj33tSxYgQ5Cv+Cayaq4nEz2x6934al//mBoExk5aAYiaFpfHNExQ5U+jsdV9iojkzEyFyP9+HON0TG4EiB2sRe6dLmOY9ILzmBYQPT969P2+sOG95IACZAABUgf3AOPzhkKqcXgToDIwfyZPw1X6VSDJUACnYbXFwEiy8M0vJ43qVEBIj35m4bX82iCf4WrLFjaYa64sA5/n7e4q1aBliJUChP2NQFiNM2pkTS8+tSyEmvxxqK1+PLDXwwtyOhJGbj8hgORkBypCgfefd0X3Qr8uTvsGnoIAIlruPavM5Ce5bxIozZPI7VLXD3T6OHf6Jh9uc7oGFwJEH1NFXcHf328TzAEiD4zmWN2OV+48B4SIAESEAIUIH1wH2iWBym858wFS1LfSqG4YyYkIDYqFO0251W3/XXB0hcilBoc81/ZhQ9+3Jej3ttChL4KkL5YiPCNbysw/5XddgURfSlE+I+LBmPEwCioAl9bGzBv4Y5uRSeNbFFvBIhWiFD8yqWmimQm0xeo9FSI0Mh4gn2NKwGiT6u67LOd+ODVjSozz+G/y0N4pFkFnPc1ASKstJgNV4XejBYi1Nf+cBRhntZEL16kcN7Hr29W8SP6pi96t3p5MR6db189XLJKHXnCUGV9WfHtblXXwrHJ56dfPE4VK3SW9Utvwdm0ugz/ufu7bkLonCsnYsYxuQgxheCnpUV47t/2Fd6NHv49MfHnc6NjcCVA9Ad/Vy5Y8oxTLxyrsmOFh4cGJQZEGGhprF0VdZS9I8Uhxc1OKtx/8f42vP+S8wxm/jDlvSRAAv2HAAVIH1xLfRC6VN1eW9CIT1fWoLLegumj4nHo6HhV+G/ZpjocNCpezeD+t4vw/OJyu9n4K0CkswcuG4ITpyarIMgWiw0/bKnHF6trkBBtxglTkzAwJQKF5S0YNzjGYx0QXwWIFP9bOHcYhmREQqpa7yxvweLVNaqa+sH58ThyfAJS48PU3JesrVUV34Wbvkm8h1R01zexIt10+kBkJoWrAH999XW5f+ueZjsxcOYhqbjtrByVmUy631LUhC/X1aKgtAWzpiTjoPw4bNzVhLG5MS7XRP98fbE/+e8Wawcefr8YCz91nS5V0jEL67BQ+1Sc+oQEiz4vw49b67seJVXs1xc2df1v/f4SnkWVrfh8VQ3W7WxUVe2PGJ+AXeWtGJQeoeqquEvB3FtfH02AtFtsePnJ1fj2swI1FP0BXD82KdAmQbqxCREeBYi3c5KDYmZ2XLfbTjp3NDIGxKK2ugUfvb4ZUiFaa46ZtCSIWK6XQ6SsSWlRnQo43lvSiAnTsjB0VIo6XA4cnKC6cCWi9hVi7MDXH+/ACwtWejUd/dt0CWDfvHYvNq4qQ2x8OMYe0FnQ0RQagqZGC954Zi2++cQ+JatkwLp03lTEJ0aq+iM7tlZhzQ/FqpK5BKKPmpCG0RMzVNE8maczFzGJaZA+ktOi1TXVFU3YsLIMO7dVq6KBYjHKzI5Xv0nuDubnXz1Z1dkwmgXMK1AGLvZXgMgj9EHosn82ri5TQehSN0QytWUPSUBNRTNEGKQPiA2aAJEscmdfPh7RsZ3rpu3PPTvrMGx0CkaOS0NSarRaE1/qvxjAyUtIgAT6GQEKkD66oPq36Y5DlD8AS9bWKDFw42nZLg+7gRAgKXFmPHnNMHXodTWOkJAQHDU+IWgCRJ47Iz8e888fpCqRO2vCRLKFzVtYgKKK1m6XaHE1RpfblVvb7efk4NzD01RxRscmz33/hypcPrMzgYAzUai/x1GAuKsUr92nD4Y3OhdndUvc7S8RLE9/WoY5x2f2WQFy1EnDINWww8JCuxXZu/DaA3Dw0bkIC+9MrytuI/ImXw7XcUEQIFqmIaPrIdc5yxKkty449iUH+FXf78FhKrbDuQDRx0/IYfX5BT9jxdJ9yQOMjE8O7LNvmY6xUzJd1psQYbL0swK89Ngqp12eesFYHHf6CCWm3LWiglo8ed9yp4UK5cArVhItWN1ZP+KiJcLu4zc7awbpm9HDvxEmvl5jdAzu0jWLu5qshwgNpwwaLXhr0TocffIw5doWDBcs7bknnzcaM08bqUSdqyb79K1n1+H7Jc4Tp/jKkveRAAn0PwIUIH14TeWtthxmRw6Mgjk0RL3VL6+14PVvKvDkJ6U478g03BRkASJ45K27PGfW1CRl+RDbQnWDFR+tqMI9rxdhwZw8HDUhMagCRMYhYuiqE7Jw7KQkpMablQiQQ/ueyja8+32lYuJo+dCWN1ACRPo7fUaqqhCfnRquxiDuS2Klmv/qLswYHe92TfTbTVzc7r14sCq2aDPoghUoASLjENEoPPNzotX+arXYlNXnoXeL1ZtMrbJ8X7SA6DP/bF1fgftu/tLum6xZJdpa27FhZWk3F55Afu0DJUBkTMefOQpSh0Te/kvBORl/UUEN3nx2HWTO8rk0ZxYQsaJIsL0IL2dMvJnzzNNG4JBjh6i36uYwk7pVxrKnsBaL39/u8YAph285FA/MTbCrsyJv6iWd7Pqfy/D2c+uUZcRVk2KKM08dgfyJ6erNu+xJ7X6xAkh19x2bK53ebvTw7w0Tb681OgZP9WJEWPz+vDEYPSkdUTGdHLR98d5LG7H+59Ku4pDBFCAyf7GCyd4YMjIZkVFhnWvS3qGquG9YVYb3X9rgdk29ZcjrSYAE+i8BCpD+u7acGQn0awL6Whcfv7EF7720oV/P19PkND998cGXqt5vLlrn6RZ+7oSAqwKVnmA1NrSptMJsJEACJEACnglQgHhmxCtIgAT6IIHDfpeHMy8bj+iYMDQ3WvC/1zY5dcfpg0MP+JD0sRfMVOQfXl+KIcoTnQXU+zcS3k0CJEAC/ZcABUj/XVvOjAT6PQF93IS450hw97YNFdixpUpl46mpbFbB3P29STzMcaeOQKjZ1K24X3+fe6DnRwESaKLsjwRIgAS6E6AA4a4gARLYrwk4Bp3rJ9NbGZD2a6AcPAmQAAmQAAkEmQAFSJABs3sSIIHgExg5Pg1HnzQMI8dJwHJYVwYnCpDgs+cTSIAESIAESMBbAhQg3hLj9SRAAiRAAiRAAiRAAiRAAj4ToADxGR1vJAESIAESIAESIAESIAES8JYABYi3xHg9CZAACZAACZAACZAACZCAzwQoQHxGxxtJgARIgARIgARIgARIgAS8JUAB4i0xXk8CJEACJEACJEACJEACJOAzAQoQn9HxRhIgARIgARIgARIgARIgAW8JUIB4S4zXkwAJkAAJkAAJkAAJkAAJ+EyAAsRndLyRBEiABIJP4KCjcnH0ycMwMDcB4RGh6oFLPy3As/9eEfyH8wkkQAIkEEQCdz0xEwMGxaOjA2hqaMPan0rw1rPrUF3RHMSn9l7XUSEmPJExCtOj4rGxrREXl2xCrc3aewPqxSdTgPQifD6aBEiABNwROPm80Zh52khERpntLqMA4b4hARLoDwQ0AaKfS1FBLZ68bzmKd9X1hynazSE/PAbPZuUj0WTG07XFeKBqV7+bo9EJUYAYJcXr+hWB7NQIPHzFEIzJjVHz+mFLPa57agdqGn+bbyL61eL2k8nkjUrB7JunITUzBjZbB3bvqMGKb4vUm8HSonoUbK0K+kyPO3UETjg7H7Hx4bC0tWPpZwV46bFVQX8uH0ACJPDbIDD+wCzEJ0ZiWH4KJkwbgPjECGUN+fHrXXjqnz/0OwhXJ2ZjblI2mjtsuLx0E1a01Pe7ORqdEAWIUVK8ziWBd27Px+icaBRXtuHKBduxrbjvm04vPDodN52WjXBziJpXfXO7EiDfbvTvjcstZ2Tj0mMz0GbtwP1vF+H5xeVB3TmPXzUUR01IDNj4gzpYN50fMjoeD1+Zh7ioUCxZU4M/PvZLjw7lxn8cjvyJ6eqZmnUhf0I6LrvxQCSlRKGl2YoX/7MS3y8pdDmupNQonHzeGIyZlKHuMYV27q22tnZUlDTiuyWF+PLD7aovI+34M0bi5PPHIDw8FNs3VuChO5YavtdI/0au0XOR6+WN5B1zPjVya69dIy5r5189WVmNXB1k5KBz8Z+mqMOOtE2ry/HAn7/ulTFrb4CrK5vxzAM/YtOawPxm6Pevs4nRitYryw3Hddn1Sw3uu/nLbt/tUy4Yg+PPHAWz2fSbcbk8YEY2LrhmMuISIlBe3ICH//otyvYYO6Drv/f675J8zw+dOaTXv+cygHiTGYsy8zE2IgYrW+pxRdlmNNjae2cj9oGnUoD0gUXY34ewPwqQYFlAKEB82837uwA55LghOO2isUhIinQJQA7DO7dW4b8P/WTItaAvHED2RwuI/iAiiyHWokfuXGZ3kDnjknGQuYWaTb1+MKEA8e03Y3+9y1GAtDZb8caitfjyQ/uXLn3h+98bjH39PuwPAmRaZDyeyhyFyBAT7qsqxH9rS3oDcZ95JgVIn1mK/Xcg+6MACRZtChDfyO7PAkTEx9mXj0d0bLh6415d0YQt6/Zi+8ZKJKdFYdDQJAwfk9r1Rn7T6jL85+7vPFozfqsHEN920L67tIOIOcyExro2xd3xgCeWnbyRyWhpsSrR2B8tIDLvMZMzuxIXCKGJ0wZgyqHZChYtIP7uNN/udxQgrqx0v8Xvf8bAOFx35yFIHxALby2CfV2AiD38rtQ8nBnXaWnf0NaIO/buUIHoHb5tpf3+LgqQ/X4Je38CFCD71oACxLf9uL8KEDnk3XTvERg8PAlWqw3LlxTilSdXdxMXEs9x0dwDkD04QcVSvP/yRnz0+ma3sPQuWKuXF+PR+ct8g/sbu0t/ENlTWKsy7Cz7fCcWPdyZNUw7AJpCQhBiClFuWP1RgDhbdr07CgVI73wx9AKkam8TEpOj1GH7iXuXY8fmyq5B/RYFiJ6Nt+6efV2ApIWG4cWsMRgcts9KbhMh0tqAf1QVYlVL/W9OiFCA9M5vUL96KgUIBYi/G7qvCJCOjg58+b9fVKD1iLGpuPLm6ZDYjsb6Njy/4GesWFpkN9UjTxyKMy8Zj/BIMzauKsODt3/jEsVhv8vDmZeNR3RMGIwICv0f1N48IPu7tj19v57bmh9L1DpW7ww0pycAACAASURBVG3G3+ctVsJQE3bie5+SHq3idXqTr68uJ75wpQDxhVpg79Efsgu3VyM9K1ZZqT57ZyveXLSOAuTXuDt/BEhFWSOeuGe5StRx4bUHQH57Q0Jg6Hc3sKu9r7dTY9Pwj7Sh6j+8WleGcRExGBMRi04nUGBrWxPuq9qF75tr0f4bkSIUIMHabQHq95TpKTj3iDQMHxCF6IjOrdpqsaGkqg2vLa3Ac4vL0W5zbsDThMHG3U049e5NmH18Js49PA3pieEQc6AEXi/bWIcH3tmDoopWlyOW50rA9qypSUiINquvRnWDFR+tqMI9rxfhzT+PchuErgVKa0HqOanhuOqELOTnRMMcGgJrewe27GnGwk9L8dGKapfjSIkzq/uOnZSE1HgzQk2d9+6pbMO731fiyU9KXbIQfk9dMwwDUsKd9q8xMrJsp89IxezfZSI7NVyNoanVhrUFjZj/6i6cMSPVcBD6mEHR+MdFgzFiYBTk4PvT1gbMW7gDlfXOg5T1h3Qj45Rr3AXXSxzMVbMyccT4RCTFmmEKgeJZXmtR6/CfD4vV3BzbjacNVHOUuUvCgYse3Op0zHLN9acMVIH+heWtuPrxX7oSFGh7wug85LpgBqdfNm8qDj5msLJifPzGZrz7wgY1NE+Hw9m3TseBh+Wo/PUvPrYKP3zlOqWiWEtuf/gYZOXEoWhnLf561Wdup29UgEw7YhDOv2qScgHzFLg549jB+MPsiYiKDnN6rf6tq7PBGX1rLnOddXY+ph2Wg+S0aBWQL64mLU0WdSj49O2tWP9zqd0jNGFgMoXgkze34J3n16vP9QHjjocS7UBdW9WChf/6UYlAPbfvvtiJYaNTEZcYoSxTYgm59i8zMH5qFpZ/Waj6jokLdytARGQeNjMPmdlx6qCo5tFsgaQK/fDVTd3m4chNBOzpF4/DhAOzEBXT+fsj+0XE0UuPrcRtDx2trDTuXE584els/XpLgBjdy56+bzKnkePTcOLZ+RgyIhmR0WHqYCnNmzoS/vDUCwgRrgvuWobfnz8G8j2UbE4yHonr+GVzJT58bRO2rN1rtxT6+0t216HDBgzIjYeIkflzv+i61ogFxFniC+HQ1mJF8e46LH5/u9PEGfoxfPtZASKjwjDxoAGQ797mNeUqTk3c97S4NtmvSz78pes76bi3/OGp78vdd93T34rRkzJw+Q0HIiE50i5ZhhGOnvr293NzSAgeShuO42KSUWptw4WlG7HL0oLR4TG4NSUXUyLju4TITksLHqrejc8bq/q9EKEA8XdnBel+OWzfc/FgHDomQR0MnTX5oflpW2f6WGeHVr0A+Xl7gxIfcmh0bHKIvGXRTmzY1dTtMxnHk9cMw7jBnelq9U2ev2RtDQYkhysx4SoLll6AvP5thTq8R/0qpvT9tVhsePjdYiz6oqzbs2bkx2P++YMgh2ZXLNbubMS8hQVOxVSgBMjt5+S45CgibvmWeiVCjGTBeuDSIThpWnLXdCzWDjz8frESYs5aIAXIcZMS8bfzciHr64qniLKb/luAX0pa7C6RPfTCDSNwwLBYJfheX1qBv71sf/AW3o9fPRQ5qRFobGnHX17chQ9/2pc2tq8JEO1g5q0A+csjxyB3WBJKdtfj7uu+8BjXcdO9h2PU+HRD2aTEV//Caw5QB2RPguX//nWUSmPZ2mJVb1GXfLDd6bpKhpnDj5e3gSH48ZvdePLe5XbXBUKAyGH6ypunIXtIYtfh0HEwcqARF7SP39zS9ZEc4C64ejKiYsLs4hMkxuacKyaow1FTowVP/XM5tq6vUPeJmJg4fYCdmNIfdkUwSUYdOdgs+7wAH72xRfmYC1N54yxZhuTw5MwCIv/9kuumYvLBA7symjnOQzKcLX5vm92ba/01wmL2LdORPSTB6e+nxAPJITIrx7UA8ZWnsw2wvwuQcVMycdHcKYqZu+aujoS/PB0FSHu7TR3WNSGkH5ekzH7ukRVYt2Lfb7qjm5Gk1z7w8EFobrR/ieHp4Cz7XIStOxbye/bd4kI851C0VD8GeREwfHQqIn6tNSQpv+V7M3JcmhLdWpPv3hvPrMU3n+ywQ+8vT31n+u/u5rXluP9W45npXLlveeLodiMF6MMR4dF4LjMfyaFheKO+HHdU7LCzcQwPj8KNSbk4NDoBoer1MFBsbcW/q4vwv8YKWOSw1Q8bBUgfXdQHLhuCE6cmqx+1ijoLvl5fh+Wb6xAZblIHPzmMpsaHqbc+crC78ZmCbjPRBMjOshZ1X3ObDR//XI2C0hYcMS5B/RMT2flGz1Uf+nGIQPhmfR2WbqhVlpATpiZhYEoEymralIXGkwAprW5Dq6UDMZEmfLm2Ft9tqlPC5thJichOiVBzFSF1/dM7VF0OrYnoWDh3GIZkRKqx7ixvweLVNUowHZwfjyPHJygW0pZtqsMVj2zvZgmRQ/PEvBhEhWsGTyAxxoybTh+IzKRwGLGAnHlIKm47K0eJJzE6bShsxJfrarF7bytmTUnGQflx2LanWYkx+dxTGl5HASLWh0c/KMYTHzsXIMLhD4elqrXU2pThcRiVHQVZm89W1qCuyd560tJmwyvfVNiJMr04EJ5Fla34fFUN1u1s7MZThOsF/9rajeekobF45Mo8pCeGKWvYrc/uxFfrarvGtWDOUBwzMVH97zeXVeD2F+zT155+cApGD4ruuj4+2ozjJiciMsyEzUXNWLGte+rFjbua8NZ3+3ykb5n3J5x4/HGGv8FNTc148NHH8OkXS7rdc9blE3Ds74erlLn6dLuaYHAlMLQ3to5/LOXwetm8AzF2SibCwkNRW9Ws3pZLmklJ92vEvUD/B9WTANFndXImLLQJa4LJVeYdOUzk5CWqw77WhuanqDSWRtOBzrv7MMjbSPk+i8uTBOTLW9W0rBgVf5GZHa8+E7e2Fx9biR+/3q0e5Xiw09LinnrhWLU2dbWtiI0Lxwv/WdlladKEl56PowCRNJ6SzlhSIX/9yQ71VrdsTwO+eH8bzp0zyaUAOe+qSThi1lDFQuJ2RPTIOsvajj0gEzlDEpUwEdH39nPr8cV727rtq7l/nYHxBw5Q89X3IdaqidOykJgShbqaVmS4Cbr1laezL8b+LkBu+eeRyqVOfrfEzWbdihLs2Nz5YmPY6BRMOHCAOpDL5yu+3a3ccBybvzwdv5fixldT2azSJ+8tacSoCenq8K4VD925rRr33/pV18sJx4PyJ29tUVZJsULoa1+4OzjrawTJXEuL6tT+3LGlCjlDEtR3WJIsyG+P/KZ94BBzZjeHglplfdu5rUq5KklSBolNEaviyu/3YNJBA5W1Sfaws98Wf3nq10f/EsJbt0h9ALv+XnmBce7siQgNM9lZVg3/4QjAhZcmZOGW5FxYOzrwx7It+Ka5xmmvuWGRmJuYjeNjU7qESEW7BQtqivBu/V5VO6Q/NQqQPriacqB86Io8pCWEQcTD7AXbu1k4xH3nkdl5yiJQXmNR7i1iAdA3TYDIW2p5M3/N47/YudTMnJyEuy/IRXx0KMpqLPjjf7bbWUHkGY9fPQwZiWGqQN8dLxTis1X7vjhyqH90Th6OGt/5ptOTAJGxiZVg7pM77J6jt7LIj+mzi8tw7xv7fO1vOHUgLjsuAxI0KhaXa5/YYXcglvufnjscMl5xGbrz5V14d/m+g6qrJdZbRYwIkGfmDschY+LVs1/+ei/ufrXz4KS1S47JwHWnDFCHaCMWEBnvvRcPVuLNZsAFy9k8fKkDcuuZ2bj46M4D4tfra5UFTe9qpd9bIlrvemWX3cFfG4fexWpNQSOufHS72id6oSYi8YpHtrl0K9P68iUGJJACRPtjb7XY7ASIVgfDlWDQBIjjH8srbpqGaUfkKEuD1uSgKYcmORgYESBHnTQMIiwiIs1O//Dr94O8Gb503lTlAuLKDUtvUXGWmtbV98SbN4h6Fy85wLyw4GesWl7c1bUcyq6+/WDkT+zcf46xMBpPvTuKHJoPOjoXcpAbNDQR77+4octy4oy/owD55tMCzLl1ujqMbVhZqlxlxDVr89q9XfVCHNdPDnhyjxwu5c3vW4vW4auP7NOknnbxOMw8bYQSZuJWdvd1i+0Q6tfEWR+OLJy5YPnL03FN92cBoo/Jqixv6ha0LXPVH6z1cQAah0Dw1D9D/l45y2onwvX0S8apeK/mJkuX+5/jGOV34O/XL4YIK9nb+nm5+97JZ0efNAymUJP6Dj19f/eCfSK0JdW07Pvtmypxzw37Xrzo56D/vdBexFgs7V2WVL1blOP3JBA89XtUhM6c/5uO1IwYj+6kzn6v3P0eSFY8vXttTx39okJMeCJjFKZHxWN9ayMuKd2EOpv7WlAZoeGqWOHJsakID+l84Vhrs+KpmmK8Ul+Gxn5SO4QCpKd2YRCeo71Bd3VI1ASIuMDc9kIhPnYSX/Hs9SNw0Kg4ZR1xPGhK7MmtZ2QjIszk0v9+yvBYPDp7KJLjzB4FiLs3/Gcdmorbzs5Rh3dHX/9Xbh6JyUNjUdfUriw9cmh2bPrCguISdMeLrgvGafd6I0AGZ0TimbnDlOBzV3BRG6sRARKILeGLAHnrz/kYmxvtluflMzNx3ckDEGYOUS5WznjqBagIqKc+KcULS8rx3LwRSlQ5E62u5uyLAMkfOQKDcjpTihpp1nYr1q7fiL17O913AtGc/cHTHzybGy34aelu9fZz+pGD1GFA4i/0AsQxXaoIDnmbK24dkqFJDvJiKVj53R63Q9beDrtyw9IOF5L5yZsqw94IEC3gUwYqLk9a5in9wN2JJWcWJy1lrlgfxPLwxfvb8frCNXaHTX1siqMAefbfKyB9DB2doqrIJyZFqrS8LU1WlwJEn4HM1ZtYWbfbHjxa+e+LuJTnrPlhn9g6+dzRqoq8HHxc9aEXhc4EiL88+5MA8SdDksYhEDz143C27tqz/vS3QyBVvh3dOp3NQ/tuyu+odkj25nvn7IdBf5h3FGOe3JUkfbUWU+XKMinPDARPx7Frlkd5eSNZ7OQ7JRZorWnWpkD8fvdEH1Mi47AwMx8iRJ6uLcYDVa7jBB3HkxRqhlROPyMuXd0vrT8JEQqQntiBQXqGp5SvRrJTyaH/wqPSnb6x/9PvB6h4DTlo/vfzMtz3pn0GIJmWfPb2bfnKDciTBaShpR03LCywc9XR0OiFjN4aIW5SL900EsOyIt0e/H05wHojQFyNz3Fp3fEMxjbwVoBIEP6z141AbnqECgy/+OGtiqtjM8pTby0RK5q4Tok7mvwhdWYlcsXA6POCwdCfPp0JEO3wGhZmwtcf78ALC1aqR+iDxfUCxFXF6rbWdhWYaiTQWfrXDiyhoSanAqMrTsRF4TNXHLw5CGkxGeL2obdUOPbtKthYC+rXH8bvfOw4ZdkRlxpxEREhJrErmrtGWESonWuFMwGid1HT3viKJUqrmO4oELQDobhYuQu81yxkIjD1rnsyXzlIHXnCUGUFc9WHPjGBMwHiL8/+JED0B2o5+It1zZMod5x/IHjaB5G7jv1ytf7ODv96US6uVFIZ3ZvvnavvrqvvmScBUl/bimce+FG5lbkTIIHg6Th2+U6ooP7DB6nkEXp3ULnWW9csf37fA3HvjcmDcEXCANTYrLi4ZBM2tdl7qhh5RpwpFJclDMAF8ZmINYWqWz5qrMT15d3dPo3011euoQDpKyvhZBxyKJszK0u5FmkZsJwN19XbdiMCxJ2I0T6TZ7oSIPKZp+cYOSSLheHR2XnISg7HlqJmnPdAZ3CqXiS4szz4coD1RoDo+3fnruVJFAZ6uxlhq3+mfs6SfEDv6qa/blB6BMT1LTYy1GP2qfOPTFexNBFmkwqsk/ABvUuWkTn7sn5G+g32Nc4ESJcbQ1s7Xn5yNSTLjNa0640IELlHRMj3Swrx/KM/e5yK/qDg6GKlP+AUF9Z1paT12KlO2BiJAdEO5BJjIr7te0ud/7E96dzRTuMetDeqYsWRA31leaNKhSyBvtLfGZeMV77qEpyquajJHPSB984EiMz//KsmIzYhAiuXFeGZB3+yy5bleKgx6qrkToAY7cNd5id/efYnASJz0cfUyHdDxKRke5JAbokDWvuj+8rSgeBp1BIj1i9xgRIL2HeLd6rU3tJc3a+NTcuoJ9nyJEmCq++ds8xTrr7PjuI2UAIkEDwdxyxxaOdcOVFlO5O5O7b9SYCkqNofo5EXFoXlzXWYU7bZrzgOESI3JefijNg0fNpURQFi5A8Yr/GewEVHp+P63w90mi3Ksbf+IEBcEaIAcb93/BEgRnelkfS3+qxWEpQuiQS+39w9kNzVM/uTANEOns7eihvNgiUH5hPPycfQ/FSIP7ZjEKkrjprbh2OQud464so1ylWf3ryJ1Q4kRveW48FIe5Zk4hELyt6yRpUJTFxIRGRIms3GhjbcMedTSHD6784YqVKe6mu0OBMgzsbjLjWsUfHQUwLEV579TYB4yrgkgf4iRt57aaPT9Mj+7k93AsLoGrk6/M86axTEbc8cFqosmOUlDS4FiIiPq247uCvZg6dnB1uAeHq+9rmR6uZaULvV0o7vv9yFz9/ZqlxW98d2VHQSHk0fAUnD++eKHXirvtynaYj71bnxGZidOBAJps7MlbSA+ISSN3kiMG1knApCl+BqiZuQ4HLJcCRvrPVt1pQkSE0KChCorGAPX5mHuCjPb+w1hr91C4infah97kmAyD7V4j7kHkkn/J//leDxj9y/jdQ/35f166sxIO4EiKegdj0TXzLCOB5invpnZ3CqJkyM1Ctx3Bc9KUA0USBvjaUWiNQNkQxW29ZX4KXHV6kUuuJyJe4hwkeyc0lchz41LwVIp+uMs2ZUWBn9bTB6XSDrgMjh+8gTh2HqodlIy4xR2aPEVU7fXCUO6MsCRJ/FSSw7K74twnG/JjlwdOHTZ2jTZ5oT1yl9c2VpDLQFxOg+8CRA9LU8HOuiGH1GX7lOduQDacNwYmxqV+2PQot9SntPY3UmPBgD4okaP/eLwE2nSdanTNWHsxSmWuee3H08uUZJP33FBcsVMFpA3G8lfywgRjJ/GdnIWqpmS3uHSgMsKZGdpVN215cvAiSQWbCMzNPZNc5csAIlQIy6eujHpfeT11ytpMaElllGqn+Lf7kcWow2XwSIM+uPkefpDyBy6JKDpKTgXfbFThXkLWmE5aAm7llyqB0zOaNbRrH+KEB85enIvD8IEGf7SL4rYw7IxJRDslUGJcmw5myvu7NYGdmfco0v30t93+7ul/o5UhNErJ5rfyhRxQGduWBJXFT24AS3KaDlmcGOAQkETz0bo0LV6Fr15nWSUvf5zNHINIfjw4YK3Lh3u+H65s6ER4OtHc/UFuO5ulJmwerNhe3vz9YOle6yV6kfl/NzIdmjgmUBCXQQuruq3K7WlEHogRUgep7bS1pw3v1bVLYqX5sW/yHZyyTuQzKtaamIvYkD6U8CxDGOQWI4tKYdHIyk4dVbQBzTaLpbLy0wVLN2SNE9CcKWKt76oHija+6NANGCyD0VRHT1bMdc/tUVTTjwiEFdmYHEPUNqLPzvtU2qAKEUgXT0CQ+EAOkrQej+8tyfBIingHwj+1WfPtlZhqpA8AymANGntZWaHlLAMjw81C6JgasUuo589N+lYLlgBYKnftz637z93QJyelw6/pGap2p/XFu+FUuaqj1u4RhTKP4Ql4ErEwd0uVpJ7Y/na0tUBq36fpJ+VwPBIHSPW6LnL3h0zlBIpWp3AkQOks/8abhKpxosARLoNLy+CBChzzS8rvegtxYQPU9fYjX0I9FnwNKKES7dUNdVG8abTFi+CJCe/2Z2f6IzC4h2YJer9Xnn7QLBd9WpOAZ3zde3gVpwtgiOL//3CyQrlmSPcqy0bJSfNwJEy/wjffsiduQ+rViiHECkhsLg4cldGabkDf4hxw1W85KK8hIT4FgcLRACpK+k4Q0ET/06B8oCcun1UzHtyEFqb0mhx1efWm1X7dtxb+ktW66KeurrTRgR6K72720PHa1q7bjLTObP/gymABERptUEEddCqSMiFcr1Llj6eiiuav7I/OQ7f+Zl41UfwRIggd6f/rI1+psW7OsiQ0x4LGMkZkQlYIelGeeXbERlu8XtYydHxuGJjJF2wuPN+nL8u3p3vxMeFCDB3oF+9K9ZHqTwnjMXLEl9e9cFuThmQgJio0LRbnNeddtfFyx9IUKpwTH/lV344MfOqrPSvC1E6KsA6YuFCN/4tgLzX9ltVxDRl0KE/7hoMEYMlMq9HfhpawPmLdzhsWiffmtpYtVdwUDHreiJp1x/1QlZkEQIsgdf/7YC979ln4LZsQbI80vKuzJqyb5Z8MehGJAcbrgWiNSieWT2UFUUc+UvDfjDPzuzoPX15kyA6Gs7lBU34OXHVymXitMuHIuU9BhVqdnIAUur4CsHEG8yv+jffIrlRNqw/BSV0nf+3C+8RuqNANGnGpYD1HOPrOh2MJ16aA7OuHQcYuMjINm6Fty1TMVxaE0fJyP/LSY2vKsmgTaWrev2ImtQPBKTI5UY0TIMyfWBECCBLkQo9WDee2kDPn93X9pMI4UIA8FTv+D6tfx5WREe+/v3Xu8H/Vt67WbHgpKOneoP1pKi+ePXN+P9lzfaXXbZDQeqWjmSdtVZf3pRuH1jBR66Y2k3V0IR+SKypMK8s3iDQPD095Ds6X59TRAB5MwFSxPpYml8+7n1+OI9+3SskkHq/D9OVoU05fcjWAIkEDz1m8ATG683ay/dkB8eg2ez8pFoMhuu/TEzJhmPpI9QWbL6u/DQloUWkF7aoO4eqw9Cl6rbawsa8enKGlTWWzB9VDwOHR2vCv8t21SHg0bFq67uf7sIzy+2Dzz0V4BIv5p/v/jUtlhs+GFLPb5YXYOEaDNOmJqEgSlST6IF4wbHeKwD4qsAkeJ/C+cOw5CMSEjl2Z3lLVi8ukZVUz84Px5Hjk9QcQfSlqytVRXfhZu+SSyJVHTXN7EiSfrYzKRwFeCvT0kr92/d02wnBvQVvqX7LUVN+HJdLQpKW1Tti4Py47BxVxPG5sa4XBP987VCktp/k+Dth98vxsJPSw3vSn3BQKnr8d3mOrS375t7VYMVL325187NSlg8fvVQ5KRGKJ5Fla34fFUNVv3SgAlDYjBjdDxGZkerdLrlNRbMfWqH+kzf9FXQ1+1sxOwF2+1YefrccYKyFs/PG4GR2VHKovf1ulqU1djXJ/lmfZ3TIpSGYQXhQk2ASJE8SQ2rNa0ooP6Rclj4ZVOlylxjRIB4c/B3nJrmS95Y3xmUKm5Yjgd1x3scCyJqnw/NT1HB3nIQWrG0CKt1xfYkFapUF9fHlGhZbNRvRrMVW9btxeY15YiND8ew0anq7bQUZGy32rD4g+147ek1dkPR3tKLeAsNDYGtvQMP//Vb9aZdExclu+uQnhWrqsSLO5b+MBsIASID0gf6SnYlqc8g6yycpCBizpBEFfws4uKtZ9cpvo5NnzZW+hC3mvU/lyI6NhwTp2Wpg7JUvxZ/flcBuv7y1I9Jb4UTISAH/Q0ry9Ra6JsIQ6nu7qzp96X2ubf7WVhIJfqNq8rUvtDzlLifN55Zi28+2WH3eBHWwjMzO079bumL1IWaTUpkSz8i8KVp9TQc5+AvT38PyZ7u16+RNnZ3QejyuyIs9d8xiQUTxpIGe/DwpKAJEBmfvzz166OPYXNMLhGEn++gdSnFA6WSubhMXVa6CWta7f9+OnvwkdFJkH8eqt6F6nbf3aKDNqkgdEwBEgSogehS/zbdsT/58V2ytkaJgRtP66wEHSwBIhmOnrxmmBIYrsYhhbaOGp8QNAEiz52RH4/55w9SlcidNWEi2cLmLSxAUYV9JhC5Xp8m1sj6uHJru/2cHJx7eJqy/jg2ee77P1RBRIGrNdHf4yhA3FWKdzVmd+sj97iqnXLEuAQVQ5TuIMr0zxG3KrF8vPVd51t0rekFsljGbn+hEJ+utPdvFT5Pzx2m1k3EnFRT/9vL7ivAutvz8mx3tWiMrGkwrtGK+zm6QsghQnLZy6FJDuJyiF7+ZaESh3KY9/bA5q4YntM/ZicOxZmXjFdvP6U11rfZpap1do+rgojuuDk7NItblLjoDB6RrOburAkPKSK36OGfur3F1tLrahGbO7dX454blqhuNFeeqNgw9R20WGzdCgAGSoCI0LjkuqmYfPDAblmWtDnJIX7xe9tUimBnTVjMvmW68uV3bPKbtWl1GaQyvbB3JUD85en4XBF4M44Z7HJOcr27/eaLBUT6FJ7CYuyUzG7F5bQxyqF56WcFdhYt/fiPmDUUp100Vglqt/vShfVN7vGXpycB4el3xsj9jtm6HNfD0Xrm+Ezh+Nk7W5E3MgX5E7vvrUBlwQoET8exu6uL44ltX/g83mTGosx8jI2ICUjtj74wp2CNgQIkWGQD0K+k2ZXD7MiBUTCHhqiDXHmtBa9/U4EnPynFeUem4aYgCxCZhhRBlOfMmpqkLB/yfl0Opx+tqMI9rxdhwZw8HDUhMagCRMYhh21xDTp2UhJS483qACKH9j2VbXj3+0rFxNHyoS1DoASI9Cepj6VCfHZquBpDU6tNWanmv7pLWQ/crYl+W4ir0r0XD1bFFiVewhcXLI3L7ecMwmFj41XhQH1zV7xRxNxVszJxxPhEJMWalcVD+FXUWVW1+qc+Ke0m5vSCx5OwmDQ0Fo9cmadEjsQz3f3abrztIGYcvya/n56Cq0/I6mKr/7wvCpBLrpuCGccOQVuLFW8sWosvP9z3FlxvUXD3RtnVT4XUBJBiZpKS1tXbXFf3yrNve/BoDMjttJAaCWIPlADRDpuzzs7HtMNykJwWrQ67cuBuabZgT2EdvvrfL6rAorOmxbCIdUOa3h1H714mnzk7tAdKgGhjO/LEoThsZp568y5xNdo8igpqDVWplzfy/9/e/bxYVYdhAP9CSBPmZKFDE0EZu6eJkQAABeJJREFUwxRECRUG2ibpx0aCktyFQVsJ+gOCQMJtQlS07Ae0E8KNQbsWFhVIRTGGtEkDy4XhqpR4Txy5yXW8Y/c695n5nK3ee5/zeQ96n3u+55y9Lz/Utu+Yb7ds/PeLc90g4MRXZ9rH73zbDry+a+iXxEGbYQ+dG9VzmHE94O6p5xba7O0zQ8vAtQrvSq8BGczw7AuL7Ymnt7W5u27tju3a6kxandH4/NOfr3pc9O9RZznqPbbdf0d3C96+5JZHudaxfvSTH9upn/77w8m4PEcpEMv99z/K6/vbadeZwtqGzaOOiX2vbO/ulDW7eaZz+PuvS+23X//slmTVa/oiM6klWP1+juv4fHTX3e2lA4+0Tbfd3D37571Dx696Jm4549X8s8dnZtv7dz7Q6jqQN//4pX1wfvQVDauZezU+WwFZDXWfSYDAmhCoL6f9mYZ6ANq7h453S4XGsQ1+UakzBqeWzrUTX57urpe4nkIzjkzegwABAuMUeHjHfFegrlxCV0+1P/zGF+P8qIm/V53wPbjlvvbiprnrfvbHxENO0QcoIFM0DFEIEMgT6H9lrF9gT/7we/vw7W/G9uTeWm7yzPOL3TUTg9u1fqHOU5SYAIH1KNAvuRrc97ouqv4d/e7rrLMHW2/a0D6af7Ddu2GmfXbhXHvt7MnuNry24QIKiCODAAEC/0OgrvfY/+pjly9+rYuSaxnI0vdnu7MVFy9e6orJ4J2eVvJxdc3I7j0Ll5cA1WsVkJUI+rsECEyrQF9A+iV0dce/Y0eWll1CN637UneyemtusVtSPeqzP6Z1X25ELgXkRij7DAIE1rTAlRedD+7suJ5ivaYB7RwBAgQIrCsBBWRdjdvOEiAwKYG6EPPJPQtt5+572pb5jd0TjGtTQCYl7n0JECBAIFVAAUmdnNwECBAgQIAAAQIEAgUUkMChiUyAAAECBAgQIEAgVUABSZ2c3AQIECBAgAABAgQCBRSQwKGJTIAAAQIECBAgQCBVQAFJnZzcBAgQIECAAAECBAIFFJDAoYlMgAABAgQIECBAIFVAAUmdnNwECBAgQIAAAQIEAgUUkMChiUyAAAECBAgQIEAgVUABSZ2c3AQIECBAgAABAgQCBRSQwKGJTIAAAQIECBAgQCBVQAFJnZzcBAgQIECAAAECBAIFFJDAoYlMgAABAgQIECBAIFVAAUmdnNwECBAgQIAAAQIEAgUUkMChiUyAAAECBAgQIEAgVUABSZ2c3AQIECBAgAABAgQCBRSQwKGJTIAAAQIECBAgQCBVQAFJnZzcBAgQIECAAAECBAIFFJDAoYlMgAABAgQIECBAIFVAAUmdnNwECBAgQIAAAQIEAgUUkMChiUyAAAECBAgQIEAgVUABSZ2c3AQIECBAgAABAgQCBRSQwKGJTIAAAQIECBAgQCBVQAFJnZzcBAgQIECAAAECBAIFFJDAoYlMgAABAgQIECBAIFVAAUmdnNwECBAgQIAAAQIEAgUUkMChiUyAAAECBAgQIEAgVUABSZ2c3AQIECBAgAABAgQCBRSQwKGJTIAAAQIECBAgQCBVQAFJnZzcBAgQIECAAAECBAIFFJDAoYlMgAABAgQIECBAIFVAAUmdnNwECBAgQIAAAQIEAgUUkMChiUyAAAECBAgQIEAgVUABSZ2c3AQIECBAgAABAgQCBRSQwKGJTIAAAQIECBAgQCBVQAFJnZzcBAgQIECAAAECBAIFFJDAoYlMgAABAgQIECBAIFVAAUmdnNwECBAgQIAAAQIEAgUUkMChiUyAAAECBAgQIEAgVUABSZ2c3AQIECBAgAABAgQCBRSQwKGJTIAAAQIECBAgQCBVQAFJnZzcBAgQIECAAAECBAIFFJDAoYlMgAABAgQIECBAIFVAAUmdnNwECBAgQIAAAQIEAgUUkMChiUyAAAECBAgQIEAgVUABSZ2c3AQIECBAgAABAgQCBRSQwKGJTIAAAQIECBAgQCBVQAFJnZzcBAgQIECAAAECBAIF/gGOyyDuL7LNtwAAAABJRU5ErkJggg==;" vertex="1" parent="1">
          <mxGeometry x="1240" y="64" width="800" height="256" as="geometry" />
        </mxCell>
        <mxCell id="Ez9eSVSXWY47dWGgBNc--4" value="&lt;font style=&quot;font-size: 36px;&quot;&gt;常规的写法&lt;/font&gt;" style="text;html=1;strokeColor=none;fillColor=none;align=center;verticalAlign=middle;whiteSpace=wrap;rounded=0;fontSize=36;" vertex="1" parent="1">
          <mxGeometry x="80" y="340" width="1000" height="40" as="geometry" />
        </mxCell>
        <mxCell id="Ez9eSVSXWY47dWGgBNc--5" value="&lt;font style=&quot;font-size: 36px&quot;&gt;DataBinding的写法&lt;/font&gt;" style="text;html=1;strokeColor=none;fillColor=none;align=center;verticalAlign=middle;whiteSpace=wrap;rounded=0;fontSize=36;" vertex="1" parent="1">
          <mxGeometry x="1240" y="340" width="800" height="40" as="geometry" />
        </mxCell>
        <mxCell id="Ez9eSVSXWY47dWGgBNc--8" value="VS" style="text;html=1;strokeColor=none;fillColor=none;align=center;verticalAlign=middle;whiteSpace=wrap;rounded=0;fontSize=72;fontStyle=2;fontColor=#FF0000;" vertex="1" parent="1">
          <mxGeometry x="1080" y="240" width="160" height="80" as="geometry" />
        </mxCell>
      </root>
    </mxGraphModel>
  </diagram>
</mxfile>
